<?xml version="1.0" encoding="utf-8"?>
<svg version="1.1" xmlns:xlink="http://www.w3.org/1999/xlink" width="26px" height="26px" xmlns="http://www.w3.org/2000/svg">
  <g transform="matrix(1 0 0 1 -424 -5432 )">
    <path d="M 14.3 11.7  L 14.3 6.5  L 11.7 6.5  L 11.7 11.7  L 6.5 11.7  L 6.5 14.3  L 11.7 14.3  L 11.7 19.5  L 14.3 19.5  L 14.3 14.3  L 19.5 14.3  L 19.5 11.7  L 14.3 11.7  Z M 26 13  C 26 5.8175  20.1825 0  13 0  C 5.8175 0  0 5.8175  0 13  C 0 20.1825  5.8175 26  13 26  C 20.1825 26  26 20.1825  26 13  Z M 23.4 13  C 23.4 18.7329999999999  18.7329999999999 23.4  13 23.4  C 7.26700000000005 23.4  2.60000000000002 18.7329999999999  2.60000000000002 13  C 2.60000000000002 7.26700000000005  7.26700000000005 2.60000000000002  13 2.60000000000002  C 18.7329999999999 2.60000000000002  23.4 7.26700000000005  23.4 13  Z " fill-rule="nonzero" fill="#666666" stroke="none" transform="matrix(1 0 0 1 424 5432 )" />
  </g>
</svg>