<?xml version="1.0" encoding="utf-8"?>
<svg version="1.1" xmlns:xlink="http://www.w3.org/1999/xlink" width="9px" height="9px" xmlns="http://www.w3.org/2000/svg">
  <g transform="matrix(1 0 0 1 -440 -1113 )">
    <path d="M 6.5 1  L 0.5 1  C 0.220000000000027 1  0 0.779999999999973  0 0.5  C 0 0.220000000000027  0.220000000000027 0  0.5 0  L 6.5 0  C 6.77999999999997 0  7 0.220000000000027  7 0.5  C 7 0.779999999999973  6.77999999999997 1  6.5 1  Z M 7.5 8  L 7.5 1  C 7.5 0.720000000000027  7.72000000000003 0.5  8 0.5  C 8.27999999999997 0.5  8.5 0.720000000000027  8.5 1  L 8.5 8  C 8.5 8.27999999999997  8.27999999999997 8.5  8 8.5  C 7.72000000000003 8.5  7.5 8.27999999999997  7.5 8  Z " fill-rule="nonzero" fill="#999999" stroke="none" transform="matrix(1 0 0 1 440 1113 )" />
  </g>
</svg>