<?xml version="1.0" encoding="utf-8"?>
<svg version="1.1" xmlns:xlink="http://www.w3.org/1999/xlink" width="7px" height="7px" xmlns="http://www.w3.org/2000/svg">
  <defs>
    <mask fill="white" id="clip80">
      <path d="M 0.992316511199988 5.30057670761337  L 2.79289347666474 3.5000002578513  L 0.992316511199988 1.69942329238646  C 0.812700075070097 1.51980685625657  0.812700075070097 1.23755245662392  0.992316511199988 1.05793602049405  L 1.05793602049414 0.992316511199959  C 1.23755245662403 0.812700075070097  1.51980685625665 0.812700075070126  1.69942329238654 0.992316511199988  L 3.49999999999909 2.7928932188143  L 5.30057670761335 0.992316511199959  C 5.48019314374324 0.812700075070069  5.76244754337586 0.812700075070069  5.94206397950575 0.992316511199931  L 6.0076834887999 1.05793602049403  C 6.18729992492979 1.23755245662389  6.18729992492979 1.51980685625657  6.0076834887999 1.69942329238646  L 4.20710652333526 3.49999974214859  L 6.00768348880001 5.30057670761335  C 6.1872999249299 5.48019314374321  6.1872999249299 5.76244754337591  6.00768348880001 5.94206397950583  L 5.94206397950586 6.00768348879993  C 5.76244754337597 6.18729992492985  5.48019314374335 6.18729992492987  5.30057670761346 6.00768348879998  L 3.5000000000008 4.2071067811855  L 1.69942329238654 6.00768348879987  C 1.51980685625665 6.18729992492976  1.23755245662403 6.18729992492976  1.05793602049414 6.0076834887999  L 0.992316511199988 5.9420639795058  C 0.812700075070097 5.76244754337594  0.812700075070097 5.48019314374326  0.992316511199988 5.30057670761337  Z " fill-rule="evenodd" />
    </mask>
  </defs>
  <g transform="matrix(1 0 0 1 -781 -3373 )">
    <path d="M 0.992316511199988 5.30057670761337  L 2.79289347666474 3.5000002578513  L 0.992316511199988 1.69942329238646  C 0.812700075070097 1.51980685625657  0.812700075070097 1.23755245662392  0.992316511199988 1.05793602049405  L 1.05793602049414 0.992316511199959  C 1.23755245662403 0.812700075070097  1.51980685625665 0.812700075070126  1.69942329238654 0.992316511199988  L 3.49999999999909 2.7928932188143  L 5.30057670761335 0.992316511199959  C 5.48019314374324 0.812700075070069  5.76244754337586 0.812700075070069  5.94206397950575 0.992316511199931  L 6.0076834887999 1.05793602049403  C 6.18729992492979 1.23755245662389  6.18729992492979 1.51980685625657  6.0076834887999 1.69942329238646  L 4.20710652333526 3.49999974214859  L 6.00768348880001 5.30057670761335  C 6.1872999249299 5.48019314374321  6.1872999249299 5.76244754337591  6.00768348880001 5.94206397950583  L 5.94206397950586 6.00768348879993  C 5.76244754337597 6.18729992492985  5.48019314374335 6.18729992492987  5.30057670761346 6.00768348879998  L 3.5000000000008 4.2071067811855  L 1.69942329238654 6.00768348879987  C 1.51980685625665 6.18729992492976  1.23755245662403 6.18729992492976  1.05793602049414 6.0076834887999  L 0.992316511199988 5.9420639795058  C 0.812700075070097 5.76244754337594  0.812700075070097 5.48019314374326  0.992316511199988 5.30057670761337  Z " fill-rule="nonzero" fill="#ffffff" stroke="none" transform="matrix(1 0 0 1 781 3373 )" />
    <path d="M 0.992316511199988 5.30057670761337  L 2.79289347666474 3.5000002578513  L 0.992316511199988 1.69942329238646  C 0.812700075070097 1.51980685625657  0.812700075070097 1.23755245662392  0.992316511199988 1.05793602049405  L 1.05793602049414 0.992316511199959  C 1.23755245662403 0.812700075070097  1.51980685625665 0.812700075070126  1.69942329238654 0.992316511199988  L 3.49999999999909 2.7928932188143  L 5.30057670761335 0.992316511199959  C 5.48019314374324 0.812700075070069  5.76244754337586 0.812700075070069  5.94206397950575 0.992316511199931  L 6.0076834887999 1.05793602049403  C 6.18729992492979 1.23755245662389  6.18729992492979 1.51980685625657  6.0076834887999 1.69942329238646  L 4.20710652333526 3.49999974214859  L 6.00768348880001 5.30057670761335  C 6.1872999249299 5.48019314374321  6.1872999249299 5.76244754337591  6.00768348880001 5.94206397950583  L 5.94206397950586 6.00768348879993  C 5.76244754337597 6.18729992492985  5.48019314374335 6.18729992492987  5.30057670761346 6.00768348879998  L 3.5000000000008 4.2071067811855  L 1.69942329238654 6.00768348879987  C 1.51980685625665 6.18729992492976  1.23755245662403 6.18729992492976  1.05793602049414 6.0076834887999  L 0.992316511199988 5.9420639795058  C 0.812700075070097 5.76244754337594  0.812700075070097 5.48019314374326  0.992316511199988 5.30057670761337  Z " stroke-width="1" stroke="#ffffff" fill="none" transform="matrix(1 0 0 1 781 3373 )" mask="url(#clip80)" />
  </g>
</svg>