<?xml version="1.0" encoding="utf-8"?>
<svg version="1.1" xmlns:xlink="http://www.w3.org/1999/xlink" width="48px" height="48px" xmlns="http://www.w3.org/2000/svg">
  <defs>
    <mask fill="white" id="clip75">
      <path d="M 0 14  C 0 21.7319864972  6.2680135028 28  14 28  C 21.7319864972 28  28 21.7319864972  28 14  C 28 6.2680135028  21.7319864972 0  14 0  C 6.2680135028 0  0 6.2680135028  0 14  Z " fill-rule="evenodd" />
    </mask>
    <filter x="391px" y="1328px" width="48px" height="48px" filterUnits="userSpaceOnUse" id="filter76">
      <feOffset dx="0" dy="5" in="SourceAlpha" result="shadowOffsetInner" />
      <feGaussianBlur stdDeviation="5" in="shadowOffsetInner" result="shadowGaussian" />
      <feComposite in2="shadowGaussian" operator="atop" in="SourceAlpha" result="shadowComposite" />
      <feColorMatrix type="matrix" values="0 0 0 0 0  0 0 0 0 0  0 0 0 0 0  0 0 0 0.101960784313725 0  " in="shadowComposite" />
    </filter>
    <g id="widget77">
      <path d="M 0 14  C 0 21.7319864972  6.2680135028 28  14 28  C 21.7319864972 28  28 21.7319864972  28 14  C 28 6.2680135028  21.7319864972 0  14 0  C 6.2680135028 0  0 6.2680135028  0 14  Z " fill-rule="nonzero" fill="#ffffff" stroke="none" transform="matrix(1 0 0 1 401 1333 )" />
      <path d="M 0 14  C 0 21.7319864972  6.2680135028 28  14 28  C 21.7319864972 28  28 21.7319864972  28 14  C 28 6.2680135028  21.7319864972 0  14 0  C 6.2680135028 0  0 6.2680135028  0 14  Z " stroke-width="1" stroke="#e5e5e5" fill="none" transform="matrix(1 0 0 1 401 1333 )" mask="url(#clip75)" />
    </g>
  </defs>
  <g transform="matrix(1 0 0 1 -391 -1328 )">
    <use xlink:href="#widget77" filter="url(#filter76)" />
    <use xlink:href="#widget77" />
  </g>
</svg>