<?xml version="1.0" encoding="utf-8"?>
<svg version="1.1" xmlns:xlink="http://www.w3.org/1999/xlink" width="18px" height="18px" xmlns="http://www.w3.org/2000/svg">
  <g transform="matrix(1 0 0 1 -110 -916 )">
    <path d="M 9 0  C 4.02943725179989 0  0 4.0294372518  0 9  C 0 13.9705627482  4.02943725179989 18  9 18  C 13.9705627482001 18  18 13.9705627482  18 9  C 18 4.0294372518  13.9705627482001 0  9 0  Z M 12.5 10  L 5.5 10  C 5.22000000000003 10  5 9.77999999999997  5 9.5  C 5 9.22000000000003  5.22000000000003 9  5.5 9  L 12.5 9  C 12.78 9  13 9.22000000000003  13 9.5  C 13 9.77999999999997  12.78 10  12.5 10  Z " fill-rule="nonzero" fill="#c2c2c2" stroke="none" transform="matrix(1 0 0 1 110 916 )" />
  </g>
</svg>