<?xml version="1.0" encoding="utf-8"?>
<svg version="1.1" xmlns:xlink="http://www.w3.org/1999/xlink" width="18px" height="18px" xmlns="http://www.w3.org/2000/svg">
  <defs>
    <mask fill="white" id="clip78">
      <path d="M 0 9  C 0 13.9705627482  4.0294372518 18  9 18  C 13.9705627482 18  18 13.9705627482  18 9  C 18 4.0294372518  13.9705627482 0  9 0  C 4.0294372518 0  0 4.0294372518  0 9  Z " fill-rule="evenodd" />
    </mask>
  </defs>
  <g transform="matrix(1 0 0 1 -827 -1354 )">
    <path d="M 0 9  C 0 13.9705627482  4.0294372518 18  9 18  C 13.9705627482 18  18 13.9705627482  18 9  C 18 4.0294372518  13.9705627482 0  9 0  C 4.0294372518 0  0 4.0294372518  0 9  Z " fill-rule="nonzero" fill="#999999" stroke="none" transform="matrix(1 0 0 1 827 1354 )" />
    <path d="M 0 9  C 0 13.9705627482  4.0294372518 18  9 18  C 13.9705627482 18  18 13.9705627482  18 9  C 18 4.0294372518  13.9705627482 0  9 0  C 4.0294372518 0  0 4.0294372518  0 9  Z " stroke-width="2" stroke="#ffffff" fill="none" transform="matrix(1 0 0 1 827 1354 )" mask="url(#clip78)" />
  </g>
</svg>