<?xml version="1.0" encoding="utf-8"?>
<svg version="1.1" xmlns:xlink="http://www.w3.org/1999/xlink" width="26px" height="26px" xmlns="http://www.w3.org/2000/svg">
  <g transform="matrix(1 0 0 1 -384 -5432 )">
    <path d="M 26 13  C 26 5.8175  20.1759999999999 0  12.9934999999999 0  C 5.81099999999992 0  0 5.8175  0 13  C 0 20.1825  5.81099999999992 26  12.9934999999999 26  C 20.1759999999999 26  26 20.1825  26 13  Z M 23.4 13  C 23.4 18.746  18.746 23.4  13 23.4  C 7.25400000000002 23.4  2.60000000000002 18.746  2.60000000000002 13  C 2.60000000000002 7.25400000000002  7.25400000000002 2.60000000000002  13 2.60000000000002  C 18.746 2.60000000000002  23.4 7.25400000000002  23.4 13  Z M 15.6 9.75  C 15.6 10.8290000000001  16.471 11.7  17.55 11.7  C 18.629 11.7  19.5 10.8290000000001  19.5 9.75  C 19.5 8.67099999999994  18.629 7.79999999999995  17.55 7.79999999999995  C 16.471 7.79999999999995  15.6 8.67099999999994  15.6 9.75  Z M 6.5 9.75  C 6.5 10.8290000000001  7.37099999999998 11.7  8.45000000000005 11.7  C 9.529 11.7  10.4 10.8290000000001  10.4 9.75  C 10.4 8.67099999999994  9.529 7.79999999999995  8.45000000000005 7.79999999999995  C 7.37099999999998 7.79999999999995  6.5 8.67099999999994  6.5 9.75  Z M 6.36349999999993 15.6  C 7.40350000000001 18.2585  9.971 20.15  13 20.15  C 16.029 20.15  18.5965 18.2585  19.6365000000001 15.6  L 6.36349999999993 15.6  Z " fill-rule="nonzero" fill="#666666" stroke="none" transform="matrix(1 0 0 1 384 5432 )" />
  </g>
</svg>