<?xml version="1.0" encoding="utf-8"?>
<svg version="1.1" xmlns:xlink="http://www.w3.org/1999/xlink" width="17px" height="23px" xmlns="http://www.w3.org/2000/svg">
  <g transform="matrix(1 0 0 1 -571 -5430 )">
    <path d="M 4.85714285714289 10.8947368421053  C 4.85714285714289 12.8981578947369  6.49035714285719 14.5263157894736  8.5 14.5263157894736  C 10.5096428571428 14.5263157894736  12.1307142857142 12.8981578947369  12.1307142857142 10.8947368421053  L 12.1428571428571 3.63157894736844  C 12.1428571428571 1.62210526315789  10.5157142857142 0  8.5 0  C 6.49035714285719 0  4.85714285714289 1.62210526315789  4.85714285714289 3.63157894736844  L 4.85714285714289 10.8947368421053  Z M 17 10.8947368421053  L 14.9357142857143 10.8947368421053  C 14.9357142857143 14.5263157894736  11.8575 17.0684210526316  8.5 17.0684210526316  C 5.14857142857147 17.0684210526316  2.06428571428569 14.5263157894736  2.06428571428569 10.8947368421053  L 0 10.8947368421053  C 0 15.0286842105263  3.30285714285719 18.4423684210526  7.28571428571433 19.0294736842105  L 7.28571428571433 23  L 9.71428571428567 23  L 9.71428571428567 19.0294736842105  C 13.6971428571428 18.4423684210526  17 15.0286842105263  17 10.8947368421053  Z " fill-rule="nonzero" fill="#666666" stroke="none" transform="matrix(1 0 0 1 571 5430 )" />
  </g>
</svg>