<?xml version="1.0" encoding="utf-8"?>
<svg version="1.1" xmlns:xlink="http://www.w3.org/1999/xlink" width="13px" height="13px" xmlns="http://www.w3.org/2000/svg">
  <g transform="matrix(1 0 0 1 -711 -4327 )">
    <path d="M 10.71484375 5.509765625  C 10.81640625 5.408203125  10.8671875 5.28125  10.8671875 5.12890625  C 10.8671875 4.97092013888869  10.81640625 4.84114583333303  10.71484375 4.73958333333303  L 9.94466145833337 3.97786458333303  C 9.83745659722229 3.87065972222172  9.71050347222229 3.81705729166697  9.56380208333337 3.81705729166697  C 9.41710069444446 3.81705729166697  9.29014756944446 3.87065972222172  9.18294270833337 3.97786458333303  L 5.72981770833337 7.42252604166697  L 3.81705729166663 5.509765625  C 3.70985243055554 5.40256076388869  3.58289930555554 5.34895833333303  3.43619791666663 5.34895833333303  C 3.28949652777771 5.34895833333303  3.16254340277771 5.40256076388869  3.05533854166663 5.509765625  L 2.28515625 6.271484375  C 2.18359375 6.373046875  2.1328125 6.50282118055566  2.1328125 6.66080729166697  C 2.1328125 6.81315104166697  2.18359375 6.94010416666697  2.28515625 7.04166666666697  L 5.34895833333337 10.10546875  C 5.45616319444446 10.2126736111113  5.58311631944446 10.266276041667  5.72981770833337 10.266276041667  C 5.88216145833337 10.266276041667  6.01193576388891 10.2126736111113  6.119140625 10.10546875  L 10.71484375 5.509765625  Z M 12.1282552083334 3.2373046875  C 12.7094184027777 4.23318142361131  13 5.32074652777828  13 6.5  C 13 7.67925347222172  12.7094184027777 8.76681857638869  12.1282552083334 9.7626953125  C 11.5470920138889 10.7585720486113  10.7585720486111 11.5470920138887  9.7626953125 12.128255208333  C 8.76681857638891 12.7094184027783  7.67925347222229 13  6.5 13  C 5.32074652777771 13  4.23318142361109 12.7094184027783  3.2373046875 12.128255208333  C 2.24142795138891 11.5470920138887  1.45290798611109 10.7585720486113  0.871744791666629 9.7626953125  C 0.290581597222285 8.76681857638869  0 7.67925347222172  0 6.5  C 0 5.32074652777828  0.290581597222285 4.23318142361131  0.871744791666629 3.2373046875  C 1.45290798611109 2.24142795138869  2.24142795138891 1.45290798611131  3.2373046875 0.87174479166697  C 4.23318142361109 0.290581597221717  5.32074652777771 0  6.5 0  C 7.67925347222229 0  8.76681857638891 0.290581597221717  9.7626953125 0.87174479166697  C 10.7585720486111 1.45290798611131  11.5470920138889 2.24142795138869  12.1282552083334 3.2373046875  Z " fill-rule="nonzero" fill="#ffffff" stroke="none" transform="matrix(1 0 0 1 711 4327 )" />
  </g>
</svg>