<?xml version="1.0" encoding="utf-8"?>
<svg version="1.1" xmlns:xlink="http://www.w3.org/1999/xlink" width="26px" height="19px" xmlns="http://www.w3.org/2000/svg">
  <g transform="matrix(1 0 0 1 -105 -5435 )">
    <path d="M 4.98333333333335 12.6666666666667  C 5.12777777777774 12.6666666666667  5.20000000000005 12.7546296296296  5.20000000000005 12.9305555555555  L 5.20000000000005 14.5138888888889  C 5.20000000000005 14.6898148148148  5.12777777777774 14.7777777777778  4.98333333333335 14.7777777777778  L 3.68333333333339 14.7777777777778  C 3.538888888889 14.7777777777778  3.4666666666667 14.6898148148148  3.4666666666667 14.5138888888889  L 3.4666666666667 12.9305555555555  C 3.4666666666667 12.7546296296296  3.538888888889 12.6666666666667  3.68333333333339 12.6666666666667  L 4.98333333333335 12.6666666666667  Z M 6.7166666666667 8.44444444444446  C 6.86111111111108 8.44444444444446  6.93333333333339 8.53240740740739  6.93333333333339 8.70833333333331  L 6.93333333333339 10.2916666666667  C 6.93333333333339 10.4675925925926  6.86111111111108 10.5555555555555  6.7166666666667 10.5555555555555  L 3.68333333333339 10.5555555555555  C 3.538888888889 10.5555555555555  3.4666666666667 10.4675925925926  3.4666666666667 10.2916666666667  L 3.4666666666667 8.70833333333331  C 3.4666666666667 8.53240740740739  3.538888888889 8.44444444444446  3.68333333333339 8.44444444444446  L 6.7166666666667 8.44444444444446  Z M 4.98333333333335 4.22222222222223  C 5.12777777777774 4.22222222222223  5.20000000000005 4.31018518518516  5.20000000000005 4.48611111111109  L 5.20000000000005 6.06944444444446  C 5.20000000000005 6.24537037037038  5.12777777777774 6.33333333333331  4.98333333333335 6.33333333333331  L 3.68333333333339 6.33333333333331  C 3.538888888889 6.33333333333331  3.4666666666667 6.24537037037038  3.4666666666667 6.06944444444446  L 3.4666666666667 4.48611111111109  C 3.4666666666667 4.31018518518516  3.538888888889 4.22222222222223  3.68333333333339 4.22222222222223  L 4.98333333333335 4.22222222222223  Z M 18.8500000000001 12.6666666666667  C 18.9944444444445 12.6666666666667  19.0666666666666 12.7546296296296  19.0666666666666 12.9305555555555  L 19.0666666666666 14.5138888888889  C 19.0666666666666 14.6898148148148  18.9944444444445 14.7777777777778  18.8500000000001 14.7777777777778  L 7.14999999999986 14.7777777777778  C 7.00555555555547 14.7777777777778  6.93333333333339 14.6898148148148  6.93333333333339 14.5138888888889  L 6.93333333333339 12.9305555555555  C 6.93333333333339 12.7546296296296  7.00555555555547 12.6666666666667  7.14999999999986 12.6666666666667  L 18.8500000000001 12.6666666666667  Z M 10.1833333333334 8.44444444444446  C 10.3277777777778 8.44444444444446  10.3999999999999 8.53240740740739  10.3999999999999 8.70833333333331  L 10.3999999999999 10.2916666666667  C 10.3999999999999 10.4675925925926  10.3277777777778 10.5555555555555  10.1833333333334 10.5555555555555  L 8.88333333333344 10.5555555555555  C 8.73888888888882 10.5555555555555  8.66666666666674 10.4675925925926  8.66666666666674 10.2916666666667  L 8.66666666666674 8.70833333333331  C 8.66666666666674 8.53240740740739  8.73888888888882 8.44444444444446  8.88333333333344 8.44444444444446  L 10.1833333333334 8.44444444444446  Z M 8.45000000000005 4.22222222222223  C 8.59444444444443 4.22222222222223  8.66666666666674 4.31018518518516  8.66666666666674 4.48611111111109  L 8.66666666666674 6.06944444444446  C 8.66666666666674 6.24537037037038  8.59444444444443 6.33333333333331  8.45000000000005 6.33333333333331  L 7.14999999999986 6.33333333333331  C 7.00555555555547 6.33333333333331  6.93333333333339 6.24537037037038  6.93333333333339 6.06944444444446  L 6.93333333333339 4.48611111111109  C 6.93333333333339 4.31018518518516  7.00555555555547 4.22222222222223  7.14999999999986 4.22222222222223  L 8.45000000000005 4.22222222222223  Z M 13.6499999999999 8.44444444444446  C 13.7944444444445 8.44444444444446  13.8666666666666 8.53240740740739  13.8666666666666 8.70833333333331  L 13.8666666666666 10.2916666666667  C 13.8666666666666 10.4675925925926  13.7944444444445 10.5555555555555  13.6499999999999 10.5555555555555  L 12.3500000000001 10.5555555555555  C 12.2055555555555 10.5555555555555  12.1333333333334 10.4675925925926  12.1333333333334 10.2916666666667  L 12.1333333333334 8.70833333333331  C 12.1333333333334 8.53240740740739  12.2055555555555 8.44444444444446  12.3500000000001 8.44444444444446  L 13.6499999999999 8.44444444444446  Z M 11.9166666666667 4.22222222222223  C 12.0611111111111 4.22222222222223  12.1333333333334 4.31018518518516  12.1333333333334 4.48611111111109  L 12.1333333333334 6.06944444444446  C 12.1333333333334 6.24537037037038  12.0611111111111 6.33333333333331  11.9166666666667 6.33333333333331  L 10.6166666666666 6.33333333333331  C 10.4722222222222 6.33333333333331  10.3999999999999 6.24537037037038  10.3999999999999 6.06944444444446  L 10.3999999999999 4.48611111111109  C 10.3999999999999 4.31018518518516  10.4722222222222 4.22222222222223  10.6166666666666 4.22222222222223  L 11.9166666666667 4.22222222222223  Z M 17.1166666666666 8.44444444444446  C 17.2611111111112 8.44444444444446  17.3333333333333 8.53240740740739  17.3333333333333 8.70833333333331  L 17.3333333333333 10.2916666666667  C 17.3333333333333 10.4675925925926  17.2611111111112 10.5555555555555  17.1166666666666 10.5555555555555  L 15.8166666666666 10.5555555555555  C 15.6722222222222 10.5555555555555  15.6000000000001 10.4675925925926  15.6000000000001 10.2916666666667  L 15.6000000000001 8.70833333333331  C 15.6000000000001 8.53240740740739  15.6722222222222 8.44444444444446  15.8166666666666 8.44444444444446  L 17.1166666666666 8.44444444444446  Z M 22.3166666666666 12.6666666666667  C 22.461111111111 12.6666666666667  22.5333333333333 12.7546296296296  22.5333333333333 12.9305555555555  L 22.5333333333333 14.5138888888889  C 22.5333333333333 14.6898148148148  22.461111111111 14.7777777777778  22.3166666666666 14.7777777777778  L 21.0166666666667 14.7777777777778  C 20.8722222222223 14.7777777777778  20.8 14.6898148148148  20.8 14.5138888888889  L 20.8 12.9305555555555  C 20.8 12.7546296296296  20.8722222222223 12.6666666666667  21.0166666666667 12.6666666666667  L 22.3166666666666 12.6666666666667  Z M 15.3833333333334 4.22222222222223  C 15.5277777777778 4.22222222222223  15.6000000000001 4.31018518518516  15.6000000000001 4.48611111111109  L 15.6000000000001 6.06944444444446  C 15.6000000000001 6.24537037037038  15.5277777777778 6.33333333333331  15.3833333333334 6.33333333333331  L 14.0833333333333 6.33333333333331  C 13.9388888888889 6.33333333333331  13.8666666666666 6.24537037037038  13.8666666666666 6.06944444444446  L 13.8666666666666 4.48611111111109  C 13.8666666666666 4.31018518518516  13.9388888888889 4.22222222222223  14.0833333333333 4.22222222222223  L 15.3833333333334 4.22222222222223  Z M 18.8500000000001 4.22222222222223  C 18.9944444444445 4.22222222222223  19.0666666666666 4.31018518518516  19.0666666666666 4.48611111111109  L 19.0666666666666 6.06944444444446  C 19.0666666666666 6.24537037037038  18.9944444444445 6.33333333333331  18.8500000000001 6.33333333333331  L 17.55 6.33333333333331  C 17.4055555555556 6.33333333333331  17.3333333333333 6.24537037037038  17.3333333333333 6.06944444444446  L 17.3333333333333 4.48611111111109  C 17.3333333333333 4.31018518518516  17.4055555555556 4.22222222222223  17.55 4.22222222222223  L 18.8500000000001 4.22222222222223  Z M 22.3166666666666 4.22222222222223  C 22.461111111111 4.22222222222223  22.5333333333333 4.31018518518516  22.5333333333333 4.48611111111109  L 22.5333333333333 10.2916666666667  C 22.5333333333333 10.4675925925926  22.461111111111 10.5555555555555  22.3166666666666 10.5555555555555  L 19.2833333333333 10.5555555555555  C 19.1388888888889 10.5555555555555  19.0666666666666 10.4675925925926  19.0666666666666 10.2916666666667  L 19.0666666666666 8.70833333333331  C 19.0666666666666 8.53240740740739  19.1388888888889 8.44444444444446  19.2833333333333 8.44444444444446  L 20.8 8.44444444444446  L 20.8 4.48611111111109  C 20.8 4.31018518518516  20.8722222222223 4.22222222222223  21.0166666666667 4.22222222222223  L 22.3166666666666 4.22222222222223  Z M 2 16.8888888888889  L 24 16.8888888888889  L 24 2.11111111111109  L 2 2.11111111111109  L 2 16.8888888888889  Z M 25.4921875 0.618489583333314  C 25.8307291666667 1.03081597222223  26 1.52835648148147  26 2.11111111111109  L 26 16.8888888888889  C 26 17.4716435185185  25.8307291666667 17.9691840277778  25.4921875 18.3815104166667  C 25.1536458333333 18.7938368055555  24.745138888889 19  24.2666666666667 19  L 1.73333333333335 19  C 1.25486111111104 19  0.846354166666742 18.7938368055555  0.5078125 18.3815104166667  C 0.169270833333258 17.9691840277778  0 17.4716435185185  0 16.8888888888889  L 0 2.11111111111109  C 0 1.52835648148147  0.169270833333258 1.03081597222223  0.5078125 0.618489583333314  C 0.846354166666742 0.206163194444457  1.25486111111104 0  1.73333333333335 0  L 24.2666666666667 0  C 24.745138888889 0  25.1536458333333 0.206163194444457  25.4921875 0.618489583333314  Z " fill-rule="nonzero" fill="#666666" stroke="none" transform="matrix(1 0 0 1 105 5435 )" />
  </g>
</svg>