<?xml version="1.0" encoding="utf-8"?>
<svg version="1.1" xmlns:xlink="http://www.w3.org/1999/xlink" width="288px" height="44px" xmlns="http://www.w3.org/2000/svg">
  <g transform="matrix(1 0 0 1 -486 -359 )">
    <path d="M 487 363  A 3 3 0 0 1 490 360 L 770 360  A 3 3 0 0 1 773 363 L 773 399  A 3 3 0 0 1 770 402 L 490 402  A 3 3 0 0 1 487 399 L 487 363  Z " fill-rule="nonzero" fill="#333333" stroke="none" fill-opacity="0.0980392156862745" />
    <path d="M 486.5 363  A 3.5 3.5 0 0 1 490 359.5 L 770 359.5  A 3.5 3.5 0 0 1 773.5 363 L 773.5 399  A 3.5 3.5 0 0 1 770 402.5 L 490 402.5  A 3.5 3.5 0 0 1 486.5 399 L 486.5 363  Z " stroke-width="1" stroke="#000000" fill="none" stroke-opacity="0.101960784313725" />
  </g>
</svg>