<?xml version="1.0" encoding="utf-8"?>
<svg version="1.1" xmlns:xlink="http://www.w3.org/1999/xlink" width="40px" height="40px" xmlns="http://www.w3.org/2000/svg">
  <defs>
    <filter x="501px" y="361px" width="40px" height="40px" filterUnits="userSpaceOnUse" id="filter18">
      <feOffset dx="1" dy="1" in="SourceAlpha" result="shadowOffsetInner" />
      <feGaussianBlur stdDeviation="2.5" in="shadowOffsetInner" result="shadowGaussian" />
      <feComposite in2="shadowGaussian" operator="atop" in="SourceAlpha" result="shadowComposite" />
      <feColorMatrix type="matrix" values="0 0 0 0 0.6  0 0 0 0 0.6  0 0 0 0 0.6  0 0 0 0.698039215686274 0  " in="shadowComposite" />
    </filter>
    <g id="widget19">
      <path d="M 520 365  C 528.4 365  535 371.6  535 380  C 535 388.4  528.4 395  520 395  C 511.6 395  505 388.4  505 380  C 505 371.6  511.6 365  520 365  Z " fill-rule="nonzero" fill="#ffdf25" stroke="none" />
      <path d="M 520 365.5  C 528.12 365.5  534.5 371.88  534.5 380  C 534.5 388.12  528.12 394.5  520 394.5  C 511.88 394.5  505.5 388.12  505.5 380  C 505.5 371.88  511.88 365.5  520 365.5  Z " stroke-width="1" stroke="#ffffff" fill="none" />
    </g>
  </defs>
  <g transform="matrix(1 0 0 1 -501 -361 )">
    <use xlink:href="#widget19" filter="url(#filter18)" />
    <use xlink:href="#widget19" />
  </g>
</svg>