<?xml version="1.0" encoding="utf-8"?>
<!-- Generator: Adobe Illustrator 16.0.0, SVG Export Plug-In . SVG Version: 6.00 Build 0)  -->
<!DOCTYPE svg PUBLIC "-//W3C//DTD SVG 1.1//EN" "http://www.w3.org/Graphics/SVG/1.1/DTD/svg11.dtd">
<svg version="1.1" id="图层_1" xmlns="http://www.w3.org/2000/svg" xmlns:xlink="http://www.w3.org/1999/xlink" x="0px" y="0px"
	 width="27.785px" height="45.473px" viewBox="0 0 27.785 45.473" enable-background="new 0 0 27.785 45.473" xml:space="preserve">
<polyline fill="#E8C8BE" points="9.956,45.473 24.3,45.473 26.634,34.414 26.05,24.993 22.884,24.239 20.8,21.892 17.884,22.81 
	15.48,21.1 13.467,21.892 12.989,11.227 10.956,9.977 8.8,11.394 8.8,31.56 6.383,28.886 4.133,27.254 0.967,27.725 4.467,37.144 
	7.717,40.81 "/>
<path fill="#303232" d="M18.742,28.132h-2v-4.524c0-0.696-0.566-1.262-1.262-1.262s-1.262,0.566-1.262,1.262v4.524h-2v-4.524
	c0-1.799,1.463-3.262,3.262-3.262s3.262,1.463,3.262,3.262V28.132z"/>
<path fill="#303232" d="M23.267,28.886h-2v-4.524c0-0.696-0.566-1.262-1.263-1.262c-0.695,0-1.262,0.566-1.262,1.262v3.017h-2
	v-3.017c0-1.799,1.463-3.262,3.262-3.262s3.263,1.463,3.263,3.262V28.886z"/>
<path fill="#303232" d="M11.202,45.473h-2c0-1.269-0.624-1.972-1.923-3.318c-1.373-1.423-3.253-3.372-4.745-7.153
	c-1.645-4.163-2.279-6.486-2.346-6.738L0,27.558l0.614-0.395c0.125-0.078,3.056-1.918,5.56-0.107
	c0.712,0.514,1.162,1.341,1.521,2.189V12.298c0-1.798,1.463-3.262,3.262-3.262s3.263,1.463,3.263,3.262v15.834h-2V12.298
	c0-0.696-0.566-1.262-1.263-1.262c-0.695,0-1.262,0.566-1.262,1.262v21.487l-1.121-0.137c-0.2-0.023-0.708-0.115-1.083-0.439
	c-0.614-0.533-0.954-1.424-1.314-2.365c-0.326-0.854-0.696-1.822-1.172-2.165c-0.886-0.64-1.975-0.402-2.654-0.142
	c0.357,1.167,1.03,3.162,2.044,5.73c1.348,3.412,2.999,5.124,4.325,6.499C10.052,42.148,11.202,43.34,11.202,45.473z"/>
<path fill="#303232" d="M25.528,45.473h-2c0-0.591,0.224-1.509,0.563-2.897c0.871-3.574,2.329-9.557,1.403-15.781
	c-0.203-1.37-0.792-1.416-1.044-1.436c-0.838-0.078-1.511,0.496-1.518,0.502l-1.332-1.49c0.13-0.117,1.339-1.134,3.005-1.006
	c0.907,0.07,2.486,0.572,2.867,3.136c0.983,6.612-0.593,13.077-1.439,16.55C25.773,44.116,25.528,45.123,25.528,45.473z"/>
<rect x="9.956" y="0.988" fill="#C74F4E" width="2" height="6.032"/>
<path fill="#C74F4E" d="M13.973,5.004c-0.256,0-0.512-0.098-0.707-0.293l-2.31-2.309L8.647,4.711c-0.391,0.391-1.023,0.391-1.414,0
	c-0.391-0.39-0.391-1.023,0-1.414l3.016-3.016c0.374-0.375,1.038-0.375,1.414,0l3.017,3.016c0.391,0.39,0.391,1.023,0,1.414
	C14.484,4.907,14.229,5.004,13.973,5.004z"/>
</svg>
