<?xml version="1.0" encoding="utf-8"?>
<!-- Generator: Adobe Illustrator 16.0.0, SVG Export Plug-In . SVG Version: 6.00 Build 0)  -->
<!DOCTYPE svg PUBLIC "-//W3C//DTD SVG 1.1//EN" "http://www.w3.org/Graphics/SVG/1.1/DTD/svg11.dtd">
<svg version="1.1" id="图层_1" xmlns="http://www.w3.org/2000/svg" xmlns:xlink="http://www.w3.org/1999/xlink" x="0px" y="0px"
	 width="27.786px" height="45.473px" viewBox="0 0 27.786 45.473" enable-background="new 0 0 27.786 45.473" xml:space="preserve">
<polyline fill="#E7C8BE" points="11.203,45.473 23.529,45.473 26.654,35.049 26.654,25.465 22.237,24.239 20.005,22.299 
	17.821,22.632 15.48,21.1 13.321,21.632 12.904,11.215 10.571,9.882 9.071,10.882 8.545,31.049 6.404,28.886 3.237,26.882 
	1.404,28.132 4.237,37.215 "/>
<path fill="#313232" d="M18.742,28.132h-2v-4.524c0-0.696-0.566-1.262-1.262-1.262s-1.262,0.566-1.262,1.262v4.524h-2v-4.524
	c0-1.799,1.463-3.262,3.262-3.262s3.262,1.463,3.262,3.262V28.132z"/>
<path fill="#313232" d="M23.268,28.886h-2v-4.524c0-0.696-0.566-1.262-1.264-1.262c-0.695,0-1.262,0.566-1.262,1.262v3.016h-2
	v-3.016c0-1.799,1.463-3.262,3.262-3.262s3.264,1.463,3.264,3.262V28.886z"/>
<path fill="#313232" d="M11.203,45.473h-2c0-1.269-0.625-1.972-1.924-3.318c-1.373-1.423-3.252-3.371-4.744-7.152
	c-1.645-4.164-2.279-6.487-2.346-6.738L0,27.559l0.615-0.395c0.125-0.078,3.055-1.919,5.559-0.107
	c0.713,0.514,1.162,1.34,1.521,2.188V12.298c0-1.798,1.463-3.262,3.262-3.262s3.262,1.463,3.262,3.262v15.834h-2V12.298
	c0-0.696-0.566-1.262-1.262-1.262s-1.262,0.566-1.262,1.262v21.487l-1.121-0.137c-0.201-0.024-0.709-0.116-1.084-0.44
	c-0.613-0.532-0.953-1.423-1.314-2.365c-0.326-0.854-0.695-1.821-1.172-2.165c-0.885-0.639-1.975-0.402-2.654-0.142
	c0.357,1.167,1.031,3.163,2.045,5.731c1.348,3.412,2.998,5.123,4.324,6.498C10.053,42.148,11.203,43.34,11.203,45.473z"/>
<path fill="#313232" d="M25.529,45.473h-2c0-0.591,0.223-1.508,0.563-2.896c0.871-3.574,2.328-9.557,1.402-15.781
	c-0.203-1.371-0.791-1.416-1.043-1.436c-0.838-0.078-1.512,0.496-1.518,0.502l-1.332-1.491c0.129-0.116,1.338-1.133,3.004-1.005
	c0.908,0.071,2.486,0.572,2.867,3.135c0.984,6.612-0.592,13.077-1.439,16.551C25.773,44.116,25.529,45.123,25.529,45.473z"/>
<rect x="9.957" fill="#C8514E" width="2" height="6.032"/>
<path fill="#C8514E" d="M13.973,2.016c-0.256,0-0.512,0.098-0.707,0.293l-2.309,2.309L8.648,2.309c-0.391-0.391-1.023-0.391-1.414,0
	c-0.391,0.39-0.391,1.023,0,1.414l3.016,3.016c0.373,0.375,1.037,0.375,1.414,0l3.016-3.016c0.391-0.39,0.391-1.023,0-1.414
	C14.484,2.113,14.229,2.016,13.973,2.016z"/>
</svg>
