<?xml version="1.0" encoding="utf-8"?>
<!-- Generator: Adobe Illustrator 16.0.0, SVG Export Plug-In . SVG Version: 6.00 Build 0)  -->
<!DOCTYPE svg PUBLIC "-//W3C//DTD SVG 1.1//EN" "http://www.w3.org/Graphics/SVG/1.1/DTD/svg11.dtd">
<svg version="1.1" id="图层_1" xmlns="http://www.w3.org/2000/svg" xmlns:xlink="http://www.w3.org/1999/xlink" x="0px" y="0px"
	 width="35.859px" height="45.759px" viewBox="0 0 35.859 45.759" enable-background="new 0 0 35.859 45.759" xml:space="preserve">
<polyline fill="#E8C8BE" points="13.987,42.989 26.042,45.521 35.035,29.839 34.327,26.631 31.577,26.339 30.744,23.881 
	27.285,23.588 26.244,21.423 22.744,21.173 25.911,10.596 23.786,8.95 21.661,10.137 15.286,29.37 12.369,28.054 10.493,24.679 
	8.369,23.013 6.66,25.096 8.619,35.138 12.369,39.096 "/>
<path fill="#303232" d="M27.375,27.085l-1.928-0.532l0.791-2.864c0.09-0.324,0.047-0.665-0.119-0.958s-0.437-0.504-0.762-0.594
	c-0.67-0.185-1.367,0.21-1.553,0.88l-1.219,3.658l-1.897-0.633l1.204-3.607c0.463-1.684,2.258-2.703,3.998-2.226
	c1.733,0.479,2.754,2.278,2.275,4.013L27.375,27.085z"/>
<path fill="#303232" d="M31.438,29.37l-1.928-0.531l0.889-3.219c0.09-0.325,0.047-0.666-0.119-0.959s-0.437-0.504-0.762-0.594
	c-0.326-0.089-0.665-0.047-0.959,0.119c-0.293,0.166-0.504,0.437-0.594,0.762l-0.803,2.906l-1.928-0.531l0.803-2.908
	c0.232-0.84,0.777-1.539,1.535-1.969s1.637-0.539,2.478-0.307c0.84,0.232,1.54,0.777,1.97,1.535s0.539,1.637,0.307,2.477
	L31.438,29.37z"/>
<path fill="#C74F4E" d="M25.112,15.051l-0.598-1.908l0.953-0.299c1.068-0.335,1.932-1.07,2.434-2.069
	c0.49-0.977,0.57-2.086,0.227-3.124s-1.072-1.878-2.049-2.368c-2.017-1.011-4.48-0.194-5.491,1.822
	c-0.776,1.548-0.491,3.426,0.708,4.673l0.694,0.72l-1.44,1.387l-0.693-0.721c-1.788-1.856-2.213-4.652-1.057-6.957
	c1.507-3.002,5.176-4.219,8.176-2.714c3.002,1.506,4.22,5.174,2.714,8.176c-0.747,1.489-2.033,2.583-3.622,3.081L25.112,15.051z"/>
<path fill="#C74F4E" d="M7.21,28.858c-2.582-0.092-4.837-1.811-5.611-4.277c-1.008-3.213,0.786-6.646,3.999-7.654
	c1.557-0.489,3.21-0.342,4.656,0.413s2.512,2.028,3,3.585c0.579,1.846,0.266,3.809-0.861,5.385l-1.627-1.164
	c0.758-1.061,0.97-2.381,0.58-3.622c-0.329-1.047-1.045-1.903-2.018-2.411s-2.084-0.607-3.131-0.277
	c-1.047,0.328-1.903,1.045-2.411,2.017c-0.508,0.973-0.606,2.085-0.278,3.132c0.521,1.658,2.037,2.814,3.774,2.876L7.21,28.858z"/>
<path fill="#C74F4E" d="M11.493,7.28c-0.256,0-0.513-0.098-0.708-0.293c-0.39-0.391-0.389-1.024,0.001-1.415l5.291-5.28
	c0.391-0.39,1.023-0.39,1.414,0.001s0.389,1.024-0.002,1.415l-5.29,5.28C12.004,7.183,11.748,7.28,11.493,7.28z"/>
<path fill="#303232" d="M15.08,43.292l-1.928-0.533c0.272-0.988-0.536-1.891-1.989-3.4c-1.754-1.822-4.157-4.316-4.667-8.451
	c-0.115-0.93-0.234-1.768-0.34-2.514c-0.379-2.661-0.588-4.127,0.014-5.129c0.452-0.753,1.285-1.242,2.228-1.309
	c1.114-0.083,2.232,0.433,2.993,1.368c0.452,0.558,0.681,1.126,0.923,1.728c0.133,0.332,0.277,0.693,0.484,1.098
	c0.543,1.061,1.299,1.432,1.824,1.558l5.923-17.384c0.215-0.784,0.76-1.483,1.518-1.913c0.757-0.43,1.636-0.539,2.478-0.307
	c0.84,0.232,1.539,0.777,1.969,1.535c0.431,0.758,0.539,1.638,0.308,2.478l-4.218,14.521l-1.921-0.558l4.214-14.509
	c0.087-0.312,0.045-0.652-0.122-0.946c-0.166-0.293-0.437-0.504-0.762-0.594c-0.325-0.089-0.665-0.048-0.958,0.119
	s-0.504,0.437-0.594,0.762l-6.395,18.774l-0.633,0.069c-0.116,0.011-2.888,0.279-4.412-2.693c-0.238-0.466-0.407-0.883-0.56-1.264
	c-0.208-0.518-0.357-0.891-0.619-1.213c-0.503-0.619-1.077-0.648-1.299-0.635c-0.292,0.021-0.537,0.15-0.654,0.346
	c-0.236,0.392,0.012,2.133,0.251,3.816c0.108,0.758,0.229,1.605,0.345,2.549c0.429,3.474,2.391,5.512,4.123,7.311
	C14.18,39.608,15.669,41.155,15.08,43.292z"/>
<path fill="#303232" d="M26.897,45.759l-1.927-0.535c0.192-0.697,0.854-1.486,1.948-2.791c2.311-2.755,6.178-7.365,6.908-13.343
	c0.169-1.375-0.387-1.575-0.623-1.661c-0.799-0.291-1.599,0.08-1.605,0.084l-0.88-1.796c0.157-0.077,1.579-0.743,3.165-0.169
	c0.855,0.309,2.244,1.213,1.93,3.785c-0.804,6.566-4.908,11.461-7.361,14.385C27.768,44.532,26.994,45.456,26.897,45.759z"/>
<path fill="#C74F4E" d="M14.709,7.714c-0.045,0-0.09-0.003-0.136-0.009l-3.215-0.434c-0.452-0.061-0.806-0.42-0.859-0.874
	l-0.377-3.177c-0.065-0.548,0.327-1.045,0.875-1.111c0.544-0.06,1.045,0.327,1.111,0.875l0.286,2.407l2.446,0.33
	c0.548,0.074,0.931,0.578,0.857,1.125C15.631,7.35,15.202,7.714,14.709,7.714z"/>
<path fill="#C74F4E" d="M1,16.964c-0.256,0-0.512-0.098-0.708-0.294c-0.391-0.391-0.39-1.024,0.001-1.414l5.29-5.28
	c0.391-0.391,1.024-0.39,1.414,0.001c0.391,0.391,0.39,1.024-0.001,1.414l-5.29,5.28C1.511,16.866,1.256,16.964,1,16.964z"/>
<path fill="#C74F4E" d="M6.666,14.86c-0.5,0-0.931-0.374-0.992-0.882L5.388,11.57l-2.447-0.33c-0.547-0.074-0.931-0.578-0.857-1.125
	c0.074-0.548,0.582-0.929,1.125-0.857l3.215,0.434c0.452,0.061,0.806,0.42,0.859,0.874l0.377,3.177
	c0.065,0.548-0.327,1.045-0.875,1.111C6.745,14.857,6.705,14.86,6.666,14.86z"/>
</svg>
