<?xml version="1.0" encoding="utf-8"?>
<svg version="1.1" xmlns:xlink="http://www.w3.org/1999/xlink" width="40px" height="40px" xmlns="http://www.w3.org/2000/svg">
  <defs>
    <filter x="535px" y="534px" width="40px" height="40px" filterUnits="userSpaceOnUse" id="filter3">
      <feOffset dx="1" dy="1" in="SourceAlpha" result="shadowOffsetInner" />
      <feGaussianBlur stdDeviation="4" in="shadowOffsetInner" result="shadowGaussian" />
      <feComposite in2="shadowGaussian" operator="atop" in="SourceAlpha" result="shadowComposite" />
      <feColorMatrix type="matrix" values="0 0 0 0 0.4  0 0 0 0 0.4  0 0 0 0 0.4  0 0 0 0.576470588235294 0  " in="shadowComposite" />
    </filter>
    <g id="widget4">
      <path d="M 554 541  C 560.72 541  566 546.28  566 553  C 566 559.72  560.72 565  554 565  C 547.28 565  542 559.72  542 553  C 542 546.28  547.28 541  554 541  Z " fill-rule="nonzero" fill="#199ed8" stroke="none" />
      <path d="M 554 541.5  C 560.44 541.5  565.5 546.56  565.5 553  C 565.5 559.44  560.44 564.5  554 564.5  C 547.56 564.5  542.5 559.44  542.5 553  C 542.5 546.56  547.56 541.5  554 541.5  Z " stroke-width="1" stroke="#ffffff" fill="none" />
    </g>
  </defs>
  <g transform="matrix(1 0 0 1 -535 -534 )">
    <use xlink:href="#widget4" filter="url(#filter3)" />
    <use xlink:href="#widget4" />
  </g>
</svg>