<?xml version="1.0" encoding="utf-8"?>
<svg version="1.1" xmlns:xlink="http://www.w3.org/1999/xlink" width="172px" height="4px" preserveAspectRatio="xMinYMid meet" viewBox="58 285  172 2" xmlns="http://www.w3.org/2000/svg">
  <path d="M 63.5 282.5  A 3.5 3.5 0 0 0 60 286 A 3.5 3.5 0 0 0 63.5 289.5 A 3.5 3.5 0 0 0 67 286 A 3.5 3.5 0 0 0 63.5 282.5 Z M 63.5 284.5  A 1.5 1.5 0 0 1 65 286 A 1.5 1.5 0 0 1 63.5 287.5 A 1.5 1.5 0 0 1 62 286 A 1.5 1.5 0 0 1 63.5 284.5 Z M 221 293.6  L 228 286  L 221 278.4  L 221 293.6  Z " fill-rule="nonzero" fill="#ff4e57" stroke="none" />
  <path d="M 66 286  L 222 286  " stroke-width="2" stroke-dasharray="6,2" stroke="#ff4e57" fill="none" />
</svg>