<?xml version="1.0" encoding="utf-8"?>
<!-- Generator: Adobe Illustrator 16.0.0, SVG Export Plug-In . SVG Version: 6.00 Build 0)  -->
<!DOCTYPE svg PUBLIC "-//W3C//DTD SVG 1.1//EN" "http://www.w3.org/Graphics/SVG/1.1/DTD/svg11.dtd">
<svg version="1.1" id="图层_1" xmlns="http://www.w3.org/2000/svg" xmlns:xlink="http://www.w3.org/1999/xlink" x="0px" y="0px"
	 width="27.859px" height="45.485px" viewBox="13.929 22.742 27.859 45.485" enable-background="new 13.929 22.742 27.859 45.485"
	 xml:space="preserve">
<polygon fill="#EECCC2" points="22.541,68.227 38.582,68.227 40.742,58.575 40.742,49.491 37.624,46.994 36.108,46.629 
	34.041,44.971 31.641,45.741 29.256,43.854 27.041,44.971 27.208,33.907 24.374,32.038 22.541,33.574 22.541,48.991 18.041,50.132 
	16.624,57.575 20.374,64.241 "/>
<path fill="#DD5352" d="M29.257,38.431c-0.238,0-0.478-0.084-0.668-0.256c-0.411-0.369-0.446-1.001-0.076-1.412
	c0.805-0.894,1.229-2.015,1.229-3.24c0-2.762-2.247-5.01-5.009-5.01c-2.763,0-5.01,2.248-5.01,5.01c0,1.188,0.402,2.27,1.16,3.127
	c0.366,0.414,0.327,1.045-0.087,1.412c-0.411,0.365-1.046,0.328-1.411-0.087c-1.087-1.229-1.662-2.769-1.662-4.452
	c0-3.865,3.145-7.01,7.01-7.01s7.009,3.145,7.009,7.01c0,1.702-0.616,3.328-1.739,4.577C29.804,38.319,29.53,38.431,29.257,38.431z"
	/>
<path fill="#DD5352" d="M17.662,41.334c-0.262,0-0.524-0.103-0.72-0.307c-1.942-2.022-3.012-4.679-3.012-7.482
	c0-5.957,4.846-10.802,10.802-10.802c5.957,0,10.803,4.846,10.803,10.802c0,2.802-1.068,5.458-3.008,7.479
	c-0.383,0.398-1.018,0.411-1.414,0.029c-0.398-0.383-0.412-1.016-0.029-1.414c1.579-1.647,2.45-3.811,2.45-6.094
	c0-4.854-3.948-8.803-8.802-8.803c-4.854,0-8.802,3.948-8.802,8.802c0,2.284,0.871,4.449,2.453,6.096
	c0.383,0.398,0.37,1.032-0.028,1.414C18.161,41.241,17.911,41.334,17.662,41.334z"/>
<path fill="#303232" d="M32.518,50.886h-2v-4.524c0-0.696-0.566-1.262-1.262-1.262c-0.696,0-1.263,0.567-1.263,1.262v0.754h-2
	v-0.754c0-1.799,1.464-3.262,3.263-3.262c1.8,0,3.263,1.464,3.263,3.262C32.519,46.362,32.519,50.886,32.518,50.886z"/>
<path fill="#303232" d="M37.042,51.64h-2v-4.524c0-0.696-0.567-1.261-1.262-1.261c-0.695,0-1.262,0.565-1.262,1.261v3.771h-2v-3.771
	c0-1.798,1.463-3.261,3.262-3.261c1.798,0,3.262,1.463,3.262,3.261V51.64z"/>
<path fill="#303232" d="M23.469,56.164h-2V34.298c0-1.798,1.463-3.262,3.262-3.262c1.798,0,3.261,1.464,3.261,3.262v16.588h-2
	V34.298c0-0.696-0.566-1.262-1.261-1.262c-0.695,0-1.262,0.566-1.262,1.262V56.164z"/>
<path fill="#303232" d="M23.469,68.227h-2c0-0.638-0.834-1.763-1.717-2.952c-1.508-2.033-3.573-4.816-3.934-8.383
	c-0.092-0.916-0.125-2.267-0.098-4.016c0.031-1.988,1.392-3.739,3.311-4.26l3.302-0.895l0.523,1.93l-3.302,0.895
	c-1.063,0.288-1.817,1.26-1.834,2.362c-0.025,1.648,0.005,2.957,0.088,3.783c0.305,3.018,2.105,5.443,3.55,7.392
	C22.538,65.672,23.469,66.927,23.469,68.227z"/>
<path fill="#303232" d="M39.304,68.227h-2c0-0.597,0.248-1.431,0.623-2.693c0.955-3.208,2.73-9.181,1.354-15.933
	c-0.293-1.43-0.77-1.467-1.055-1.488c-0.834-0.073-1.512,0.497-1.518,0.503l-1.332-1.492c0.131-0.115,1.336-1.129,3.006-1.005
	c1.502,0.117,2.463,1.154,2.857,3.082c1.479,7.242-0.391,13.527-1.395,16.902C39.578,66.998,39.304,67.921,39.304,68.227z"/>
</svg>
