<?xml version="1.0" encoding="utf-8"?>
<svg version="1.1" xmlns:xlink="http://www.w3.org/1999/xlink" width="20px" height="16px" xmlns="http://www.w3.org/2000/svg">
  <g transform="matrix(1 0 0 1 -115 -2411 )">
    <path d="M 19.9633817991965 9.71732332707938  C 20.0379296165963 9.54571607254536  19.9964029800581 9.34809255784864  19.8593150473901 9.21701063164483  C 19.8593150473901 9.21701063164483  10.34020918264 0.134333958724255  10.34020918264 0.134333958724255  C 10.1525888368352 -0.0447779862414563  9.8478933952483 -0.0447779862414563  9.66027304944354 0.134333958724255  C 9.66027304944354 0.134333958724255  0.141167184693384 9.21701063164483  0.141167184693384 9.21701063164483  C 0.00357893110323104 9.34809255784864  -0.0379477054348882 9.54571607254536  0.0366001119648693 9.71732332707938  C 0.0616161580721695 9.77385866166355  0.097138943544536 9.82388993120696  0.141167184693384 9.86591619762351  C 0.229723987913228 9.950469043152  0.350801651072569 10  0.481385411752676 10  C 0.481385411752676 10  19.5190968203308 10  19.5190968203308 10  C 19.7137216590456 10  19.8893343027189 9.88843026891811  19.9633817991965 9.71732332707938  Z M 14 10  L 5 10  L 5 16  L 14 16  L 14 10  Z " fill-rule="nonzero" fill="#000000" stroke="none" transform="matrix(1 0 0 1 115 2411 )" />
  </g>
</svg>