<?xml version="1.0" encoding="utf-8"?>
<svg version="1.1" xmlns:xlink="http://www.w3.org/1999/xlink" width="22px" height="16px" xmlns="http://www.w3.org/2000/svg">
  <defs>
    <mask fill="white" id="clip107">
      <path d="M 22 7.00002993602432  C 22 7.00002993602432  22 4.86612499142884  22 4.86612499142884  C 22 4.6806332542112  22 4.4946415392652  21.9989999545434 4.3086498243192  C 21.9974998863585 4.15215679534582  21.9959998181736 3.99566376637244  21.9919996363471 3.83967071512741  C 21.9824992045093 3.49868590439308  21.9624982953771 3.15470122728866  21.9019955452521 2.81821621610947  C 21.8404927496704 2.4757314721901  21.739988181281 2.1572456592315  21.581480976408 1.84675948992648  C 21.4264739306332 1.54127309790497  21.2229646802127 1.26178554775762  20.9809536797127 1.01929634950814  C 20.7384426564844 0.77680715125865  20.4589299513614 0.573816193548772  20.1534160643666 0.418323120032092  C 19.8429019500886 0.260330157873663  19.5243874721578 0.159834634475422  19.1823719259966 0.0983373738884401  C 18.8453566071185 0.037840068758155  18.5013409700441 0.0178409596241772  18.1603254693395 0.00834138278553837  C 18.0038183553798 0.00434156095874139  17.8478112641484 0.00234165004534468  17.6913041501886 0.00134169458864455  C 17.5052956952589 0.000341739131947966  17.3192872403291 0.000341739131947966  17.1337788081276 0.000341739131947966  C 17.1337788081276 0.000341739131947966  14.9996818037184 0.00134169458864455  14.9996818037184 0.00134169458864455  L 16.9807718532661 0.000341739131947966  C 16.9807718532661 0.000341739131947966  8.99940906404837 0.000341739131947966  8.99940906404837 0.000341739131947966  C 8.31137778989954 -0.0111577486200911  7.72935133415155 0.269829734712301  7.49934087913087 0.500319467481403  C 7.49934087913087 0.500319467481403  0.11400518205373 7.72649757531607  0.11400518205373 7.72649757531607  C 0.0375017046229388 7.80199421229684  0 7.90148978023838  0 7.99998539272323  C 0 8.09898098293642  0.0375017046229388 8.19797657314961  0.11400518205373 8.27347321013038  C 0.11400518205373 8.27347321013038  7.49934087913087 15.4996513179651  7.49934087913087 15.4996513179651  C 7.72935133415155 15.7301410507342  8.31137778989954 16.0116285117949  8.99940906404837 15.9996290463145  C 8.99940906404837 15.9996290463145  16.9807718532661 15.9996290463145  16.9807718532661 15.9996290463145  C 16.9807718532661 15.9996290463145  17.1337788081276 15.9996290463145  17.1337788081276 15.9996290463145  C 17.3192872403291 15.9996290463145  17.5052956952589 15.9996290463145  17.6913041501886 15.9986290908578  C 17.8478112641484 15.9976291354011  18.0038183553798 15.9956292244877  18.1603254693395 15.9916294026609  C 18.5013409700441 15.9826298035506  18.8453566071185 15.9621307166883  19.1823719259966 15.901633411558  C 19.5243874721578 15.840136150971  19.8429019500886 15.7401406053011  20.1534160643666 15.5816476654144  C 20.4589299513614 15.4261545918977  20.7384426564844 15.2236636119162  20.9809536797127 14.9806744359383  C 21.2229646802127 14.7386852154172  21.4264739306332 14.4591976652698  21.581480976408 14.1537112732483  C 21.739988181281 13.842725126215  21.8404927496704 13.5242393132564  21.9019955452521 13.1822545470653  C 21.9624982953771 12.8452695581578  21.9824992045093 12.5012848810534  21.9919996363471 12.1608000480474  C 21.9959998181736 12.004307019074  21.9974998863585 11.8478139901006  21.9989999545434 11.6913209611273  C 22 11.5053292461813  22 11.3198375089636  22 11.1338457940176  C 22 11.1338457940176  22 8.99994084942214  22 8.99994084942214  L 22 7.00002993602432  Z " fill-rule="evenodd" />
    </mask>
  </defs>
  <g transform="matrix(1 0 0 1 -436 -2411 )">
    <path d="M 22 7.00002993602432  C 22 7.00002993602432  22 4.86612499142884  22 4.86612499142884  C 22 4.6806332542112  22 4.4946415392652  21.9989999545434 4.3086498243192  C 21.9974998863585 4.15215679534582  21.9959998181736 3.99566376637244  21.9919996363471 3.83967071512741  C 21.9824992045093 3.49868590439308  21.9624982953771 3.15470122728866  21.9019955452521 2.81821621610947  C 21.8404927496704 2.4757314721901  21.739988181281 2.1572456592315  21.581480976408 1.84675948992648  C 21.4264739306332 1.54127309790497  21.2229646802127 1.26178554775762  20.9809536797127 1.01929634950814  C 20.7384426564844 0.77680715125865  20.4589299513614 0.573816193548772  20.1534160643666 0.418323120032092  C 19.8429019500886 0.260330157873663  19.5243874721578 0.159834634475422  19.1823719259966 0.0983373738884401  C 18.8453566071185 0.037840068758155  18.5013409700441 0.0178409596241772  18.1603254693395 0.00834138278553837  C 18.0038183553798 0.00434156095874139  17.8478112641484 0.00234165004534468  17.6913041501886 0.00134169458864455  C 17.5052956952589 0.000341739131947966  17.3192872403291 0.000341739131947966  17.1337788081276 0.000341739131947966  C 17.1337788081276 0.000341739131947966  14.9996818037184 0.00134169458864455  14.9996818037184 0.00134169458864455  L 16.9807718532661 0.000341739131947966  C 16.9807718532661 0.000341739131947966  8.99940906404837 0.000341739131947966  8.99940906404837 0.000341739131947966  C 8.31137778989954 -0.0111577486200911  7.72935133415155 0.269829734712301  7.49934087913087 0.500319467481403  C 7.49934087913087 0.500319467481403  0.11400518205373 7.72649757531607  0.11400518205373 7.72649757531607  C 0.0375017046229388 7.80199421229684  0 7.90148978023838  0 7.99998539272323  C 0 8.09898098293642  0.0375017046229388 8.19797657314961  0.11400518205373 8.27347321013038  C 0.11400518205373 8.27347321013038  7.49934087913087 15.4996513179651  7.49934087913087 15.4996513179651  C 7.72935133415155 15.7301410507342  8.31137778989954 16.0116285117949  8.99940906404837 15.9996290463145  C 8.99940906404837 15.9996290463145  16.9807718532661 15.9996290463145  16.9807718532661 15.9996290463145  C 16.9807718532661 15.9996290463145  17.1337788081276 15.9996290463145  17.1337788081276 15.9996290463145  C 17.3192872403291 15.9996290463145  17.5052956952589 15.9996290463145  17.6913041501886 15.9986290908578  C 17.8478112641484 15.9976291354011  18.0038183553798 15.9956292244877  18.1603254693395 15.9916294026609  C 18.5013409700441 15.9826298035506  18.8453566071185 15.9621307166883  19.1823719259966 15.901633411558  C 19.5243874721578 15.840136150971  19.8429019500886 15.7401406053011  20.1534160643666 15.5816476654144  C 20.4589299513614 15.4261545918977  20.7384426564844 15.2236636119162  20.9809536797127 14.9806744359383  C 21.2229646802127 14.7386852154172  21.4264739306332 14.4591976652698  21.581480976408 14.1537112732483  C 21.739988181281 13.842725126215  21.8404927496704 13.5242393132564  21.9019955452521 13.1822545470653  C 21.9624982953771 12.8452695581578  21.9824992045093 12.5012848810534  21.9919996363471 12.1608000480474  C 21.9959998181736 12.004307019074  21.9974998863585 11.8478139901006  21.9989999545434 11.6913209611273  C 22 11.5053292461813  22 11.3198375089636  22 11.1338457940176  C 22 11.1338457940176  22 8.99994084942214  22 8.99994084942214  L 22 7.00002993602432  Z " fill-rule="nonzero" fill="#ffffff" stroke="none" fill-opacity="0" transform="matrix(1 0 0 1 436 2411 )" />
    <path d="M 22 7.00002993602432  C 22 7.00002993602432  22 4.86612499142884  22 4.86612499142884  C 22 4.6806332542112  22 4.4946415392652  21.9989999545434 4.3086498243192  C 21.9974998863585 4.15215679534582  21.9959998181736 3.99566376637244  21.9919996363471 3.83967071512741  C 21.9824992045093 3.49868590439308  21.9624982953771 3.15470122728866  21.9019955452521 2.81821621610947  C 21.8404927496704 2.4757314721901  21.739988181281 2.1572456592315  21.581480976408 1.84675948992648  C 21.4264739306332 1.54127309790497  21.2229646802127 1.26178554775762  20.9809536797127 1.01929634950814  C 20.7384426564844 0.77680715125865  20.4589299513614 0.573816193548772  20.1534160643666 0.418323120032092  C 19.8429019500886 0.260330157873663  19.5243874721578 0.159834634475422  19.1823719259966 0.0983373738884401  C 18.8453566071185 0.037840068758155  18.5013409700441 0.0178409596241772  18.1603254693395 0.00834138278553837  C 18.0038183553798 0.00434156095874139  17.8478112641484 0.00234165004534468  17.6913041501886 0.00134169458864455  C 17.5052956952589 0.000341739131947966  17.3192872403291 0.000341739131947966  17.1337788081276 0.000341739131947966  C 17.1337788081276 0.000341739131947966  14.9996818037184 0.00134169458864455  14.9996818037184 0.00134169458864455  L 16.9807718532661 0.000341739131947966  C 16.9807718532661 0.000341739131947966  8.99940906404837 0.000341739131947966  8.99940906404837 0.000341739131947966  C 8.31137778989954 -0.0111577486200911  7.72935133415155 0.269829734712301  7.49934087913087 0.500319467481403  C 7.49934087913087 0.500319467481403  0.11400518205373 7.72649757531607  0.11400518205373 7.72649757531607  C 0.0375017046229388 7.80199421229684  0 7.90148978023838  0 7.99998539272323  C 0 8.09898098293642  0.0375017046229388 8.19797657314961  0.11400518205373 8.27347321013038  C 0.11400518205373 8.27347321013038  7.49934087913087 15.4996513179651  7.49934087913087 15.4996513179651  C 7.72935133415155 15.7301410507342  8.31137778989954 16.0116285117949  8.99940906404837 15.9996290463145  C 8.99940906404837 15.9996290463145  16.9807718532661 15.9996290463145  16.9807718532661 15.9996290463145  C 16.9807718532661 15.9996290463145  17.1337788081276 15.9996290463145  17.1337788081276 15.9996290463145  C 17.3192872403291 15.9996290463145  17.5052956952589 15.9996290463145  17.6913041501886 15.9986290908578  C 17.8478112641484 15.9976291354011  18.0038183553798 15.9956292244877  18.1603254693395 15.9916294026609  C 18.5013409700441 15.9826298035506  18.8453566071185 15.9621307166883  19.1823719259966 15.901633411558  C 19.5243874721578 15.840136150971  19.8429019500886 15.7401406053011  20.1534160643666 15.5816476654144  C 20.4589299513614 15.4261545918977  20.7384426564844 15.2236636119162  20.9809536797127 14.9806744359383  C 21.2229646802127 14.7386852154172  21.4264739306332 14.4591976652698  21.581480976408 14.1537112732483  C 21.739988181281 13.842725126215  21.8404927496704 13.5242393132564  21.9019955452521 13.1822545470653  C 21.9624982953771 12.8452695581578  21.9824992045093 12.5012848810534  21.9919996363471 12.1608000480474  C 21.9959998181736 12.004307019074  21.9974998863585 11.8478139901006  21.9989999545434 11.6913209611273  C 22 11.5053292461813  22 11.3198375089636  22 11.1338457940176  C 22 11.1338457940176  22 8.99994084942214  22 8.99994084942214  L 22 7.00002993602432  Z " stroke-width="3" stroke="#000000" fill="none" transform="matrix(1 0 0 1 436 2411 )" mask="url(#clip107)" />
  </g>
</svg>