<?xml version="1.0" encoding="utf-8"?>
<svg version="1.1" xmlns:xlink="http://www.w3.org/1999/xlink" width="6px" height="11px" xmlns="http://www.w3.org/2000/svg">
  <g transform="matrix(1 0 0 1 -915 -429 )">
    <path d="M 0.810699999999997 9  L 4 8.99999999942156  L 4 0.810699999999997  C 4 0.356707999999344  4.3567079999998 0  4.8107 0  L 5.1893 0  C 5.6432920000002 0  6 0.356707999999344  6 0.810699999999997  L 6 9.1893  C 6 9.29988916966249  5.9788338609942 9.40470575596009  5.9402513418695 9.49999999999454  C 5.9788338609942 9.59529424403991  6 9.70011083033751  6 9.8107  L 6 10.1893  C 6 10.6432920000007  5.6432920000002 11  5.1893 11  L 0.810699999999997 11  C 0.356707999999799 11  0 10.6432920000007  0 10.1893  L 0 9.8107  C 0 9.35670799999934  0.356707999999799 9  0.810699999999997 9  Z " fill-rule="nonzero" fill="#ffffff" stroke="none" transform="matrix(1 0 0 1 915 429 )" />
  </g>
</svg>