<?xml version="1.0" encoding="utf-8"?>
<svg version="1.1" xmlns:xlink="http://www.w3.org/1999/xlink" width="14px" height="9px" xmlns="http://www.w3.org/2000/svg">
  <g transform="matrix(1 0 0 1 -116 -1059 )">
    <path d="M 13.5355339059324 1.67157287525424  L 7.66398885591116 7.54311792414137  C 7.7137120701525 7.71193333601059  7.67089375349292 7.9001740583717  7.53553390593242 8.03553390593243  C 7.38852201939403 8.18254579247059  7.17913322828508 8.22039809601029  6.99999999997146 8.14909081657061  C 6.82086677167649 8.22039809600301  6.61147798059187 8.18254579245695  6.46446609406667 8.03553390593243  C 6.32910624660474 7.90017405847084  6.28628792990889 7.71193333628526  6.3360111436682 7.54311792485532  L 0.464466094067006 1.67157287525424  C 0.266476195334803 1.47358297652227  0.266476195334803 1.16245599279955  0.46446609406712 0.964466094067575  C 0.662455992799437 0.766476195335599  0.97358297652147 0.766476195335599  1.17157287525367 0.964466094067575  L 6.99998097586263 6.79291224294957  L 12.8284271247458 0.964466094067575  C 13.0264170234781 0.766476195335599  13.3375440072001 0.766476195335599  13.5355339059324 0.964466094067575  C 13.7335238046647 1.16245599279955  13.7335238046647 1.47358297652227  13.5355339059324 1.67157287525424  Z " fill-rule="nonzero" fill="#232323" stroke="none" transform="matrix(1 0 0 1 116 1059 )" />
  </g>
</svg>