<?xml version="1.0" encoding="utf-8"?>
<svg version="1.1" xmlns:xlink="http://www.w3.org/1999/xlink" width="20px" height="20px" xmlns="http://www.w3.org/2000/svg">
  <g transform="matrix(1 0 0 1 -162 -2462 )">
    <path d="M 20 10  C 20 15.522847498  15.522847498 20  10 20  C 4.47715250199998 20  0 15.522847498  0 10  C 0 4.47715250199997  4.47715250199998 0  10 0  C 15.522847498 0  20 4.47715250199997  20 10  Z M 1 10  C 1 14.9705627481686  5.02943725183147 19  10 19  C 14.9705627481685 19  19 14.9705627481686  19 10  C 19 5.02943725183138  14.9705627481685 1  10 1  C 5.02943725183147 1  1 5.02943725183138  1 10  Z M 10 10.8134656556736  C 13.8659932486 10.8134656603727  17 9.01793201144494  17 10.8134656556733  C 17 12.7206589856668  13.8659932486 16  10 16  C 6.13400675139999 16  3 12.7710785658617  3 10.8134656556736  C 3 8.98316792805849  6.13400675139999 10.8134656603727  10 10.8134656556736  Z M 9 7.5  C 9 8.32842712470006  8.3284271247 9  7.5 9  C 6.6715728753 9  6 8.32842712470006  6 7.5  C 6 6.67157287529994  6.6715728753 6  7.5 6  C 8.3284271247 6  9 6.67157287529994  9 7.5  Z M 15 7.5  C 15 8.32842712470006  14.3284271247 9  13.5 9  C 12.6715728753 9  12 8.32842712470006  12 7.5  C 12 6.67157287529994  12.6715728753 6  13.5 6  C 14.3284271247 6  15 6.67157287529994  15 7.5  Z M 5 10.8758887309973  L 5 11.7255332385984  C 5 11.7255332385984  6.09659830729167 13  10.5469331287202 13  C 14.9972679501488 13  16 11.7255332385984  16 11.7255332385984  L 16 10.8758887309973  C 16 10.8758887309973  13.7792445591518 11.7255332602363  10.6185477120536 11.7255332385984  C 7.45785086495536 11.7255332169605  5 10.8758887309973  5 10.8758887309973  Z " fill-rule="nonzero" fill="#000000" stroke="none" transform="matrix(1 0 0 1 162 2462 )" />
  </g>
</svg>