<?xml version="1.0" encoding="utf-8"?>
<svg version="1.1" xmlns:xlink="http://www.w3.org/1999/xlink" width="31px" height="43px" xmlns="http://www.w3.org/2000/svg">
  <defs>
    <filter x="382px" y="2398px" width="31px" height="43px" filterUnits="userSpaceOnUse" id="filter109">
      <feOffset dx="0" dy="1" in="SourceAlpha" result="shadowOffsetInner" />
      <feGaussianBlur stdDeviation="0" in="shadowOffsetInner" result="shadowGaussian" />
      <feComposite in2="shadowGaussian" operator="atop" in="SourceAlpha" result="shadowComposite" />
      <feColorMatrix type="matrix" values="0 0 0 0 0.0156862745098039  0 0 0 0 0.0156862745098039  0 0 0 0 0.0588235294117647  0 0 0 0.36078431372549 0  " in="shadowComposite" />
    </filter>
    <g id="widget110">
      <path d="M 30.9985238095238 35.8445  C 30.9975396825397 36.068  30.9945873015873 36.292  30.9886825396825 36.5155  C 30.9758888888889 37.002  30.9473492063492 37.493  30.8627142857143 37.9745  C 30.7761111111111 38.463  30.6348888888889 38.918  30.4124761904762 39.3625  C 30.194 39.7985  29.9081111111111 40.198  29.5676031746032 40.544  C 29.2270952380952 40.8905  28.8339365079365 41.1805  28.4048571428571 41.4025  C 27.9679047619048 41.6285  27.520126984127 41.7715  27.039380952381 41.8595  C 26.5655238095238 41.9465  26.0818253968254 41.975  25.6025555555556 41.988  C 25.3826031746032 41.9945  25.1626507936508 41.997  24.9426984126984 41.9985  C 24.6814126984127 42  24.420126984127 42  24.1593333333333 42  C 24.1593333333333 42  23.9443015873016 42  23.9443015873016 42  L 9.84126984126984 42  C 9.84126984126984 42  6.84115873015873 42  6.84115873015873 42  C 6.57987301587302 42  6.31907936507936 42  6.05779365079365 41.9985  C 5.83784126984127 41.997  5.61739682539682 41.9945  5.39793650793651 41.988  C 4.91866666666667 41.975  4.43496825396825 41.9465  3.96111111111111 41.8595  C 3.48036507936508 41.7715  3.0325873015873 41.6285  2.59563492063492 41.4025  C 2.16655555555555 41.1805  1.77339682539682 40.8905  1.43288888888889 40.544  C 1.09238095238095 40.198  0.806492063492061 39.7985  0.588015873015873 39.3625  C 0.365603174603176 38.918  0.22438095238095 38.463  0.137777777777778 37.9745  C 0.0526507936507933 37.493  0.0246031746031732 37.002  0.0118095238095243 36.5155  C 0.00590476190476213 36.292  0.00295238095238106 36.068  0.00196825396825288 35.8445  C 0 35.5795  0 35.3135  0 35.048  C 0 35.048  0 32  0 32  L 0 10  C 0 10  0 6.951  0 6.951  C 0 6.686  0 6.4205  0.00196825396825288 6.15500000000001  C 0.00295238095238106 5.93150000000001  0.00590476190476213 5.708  0.0118095238095243 5.48450000000001  C 0.0246031746031732 4.9975  0.0526507936507933 4.5065  0.137777777777778 4.025  C 0.22438095238095 3.536  0.365603174603176 3.081  0.588015873015873 2.637  C 0.806492063492061 2.2005  1.09238095238095 1.8015  1.43288888888889 1.4555  C 1.77339682539682 1.10900000000001  2.16655555555555 0.819000000000003  2.59563492063492 0.597000000000008  C 3.0325873015873 0.371000000000009  3.48036507936508 0.227500000000006  3.96111111111111 0.139500000000012  C 4.43496825396825 0.0530000000000115  4.91866666666667 0.0245000000000033  5.39793650793651 0.0110000000000099  C 5.61739682539682 0.00550000000001205  5.83784126984127 0.00250000000001194  6.05779365079365 0.00150000000000716  C 6.31907936507936 0  6.57987301587302 0  6.84115873015873 0  C 6.84115873015873 0  9.84126984126984 0  9.84126984126984 0  L 23.9443015873016 0  L 21.1587301587302 0.00100000000000477  C 21.1587301587302 0.00100000000000477  24.1593333333333 0  24.1593333333333 0  C 24.420126984127 0  24.6814126984127 0  24.9426984126984 0.00150000000000716  C 25.1626507936508 0.00250000000001194  25.3826031746032 0.00550000000001205  25.6025555555556 0.0110000000000099  C 26.0818253968254 0.0245000000000033  26.5655238095238 0.0530000000000115  27.039380952381 0.139500000000012  C 27.520126984127 0.227500000000006  27.9679047619048 0.371000000000009  28.4048571428571 0.597000000000008  C 28.8339365079365 0.819000000000003  29.2270952380952 1.10900000000001  29.5676031746032 1.4555  C 29.9081111111111 1.8015  30.194 2.2005  30.4124761904762 2.637  C 30.6348888888889 3.081  30.7761111111111 3.536  30.8627142857143 4.025  C 30.9473492063492 4.5065  30.9758888888889 4.9975  30.9886825396825 5.48450000000001  C 30.9945873015873 5.708  30.9975396825397 5.93150000000001  30.9985238095238 6.15500000000001  C 31 6.4205  31 6.686  31 6.951  C 31 6.951  31 10  31 10  L 31 32  C 31 32  31 35.048  31 35.048  C 31 35.3135  31 35.5795  30.9985238095238 35.8445  Z " fill-rule="nonzero" fill="#fefefe" stroke="none" transform="matrix(1 0 0 1 382 2398 )" />
    </g>
  </defs>
  <g transform="matrix(1 0 0 1 -382 -2398 )">
    <use xlink:href="#widget110" filter="url(#filter109)" />
    <use xlink:href="#widget110" />
  </g>
</svg>