<?xml version="1.0" encoding="utf-8"?>
<svg version="1.1" xmlns:xlink="http://www.w3.org/1999/xlink" width="142px" height="43px" xmlns="http://www.w3.org/2000/svg">
  <defs>
    <filter x="234px" y="2451px" width="142px" height="43px" filterUnits="userSpaceOnUse" id="filter101">
      <feOffset dx="0" dy="1" in="SourceAlpha" result="shadowOffsetInner" />
      <feGaussianBlur stdDeviation="0" in="shadowOffsetInner" result="shadowGaussian" />
      <feComposite in2="shadowGaussian" operator="atop" in="SourceAlpha" result="shadowComposite" />
      <feColorMatrix type="matrix" values="0 0 0 0 0.0156862745098039  0 0 0 0 0.0156862745098039  0 0 0 0 0.0588235294117647  0 0 0 0.36078431372549 0  " in="shadowComposite" />
    </filter>
    <g id="widget102">
      <path d="M 141.998523518732 35.8445  C 141.997539197887 36.068  141.994586235352 36.292  141.988680310282 36.5155  C 141.975884139297 37.002  141.947338834791 37.493  141.862687242119 37.9745  C 141.776067007757 38.463  141.634816966496 38.918  141.412360455521 39.3625  C 141.193841227925 39.7985  140.907896022446 40.198  140.567321010068 40.544  C 140.226745997689 40.8905  139.833509820102 41.1805  139.404345931672 41.4025  C 138.967307476481 41.6285  138.519441491995 41.7715  138.038600759201 41.8595  C 137.564650272322 41.9465  137.080856576993 41.975  136.601492325466 41.988  C 136.381496616603 41.9945  136.161500907741 41.997  135.941505198878 41.9985  C 135.680168014524 42  135.41883083017 42  135.157985806239 42  C 135.157985806239 42  9.84320845023931 42  9.84320845023931 42  C 9.84320845023931 42  6.8425063541836 42  6.8425063541836 42  C 6.58116916982974 42  6.32032414589861 42.0000000000001  6.05898696154476 41.9985000000001  C 5.83899125268191 41.9970000000001  5.61850338339649 41.9945000000001  5.39899983495615 41.988  C 4.9196355834295 41.9750000000001  4.43584188810053 41.9465  3.96189140122151 41.8595  C 3.48105066842732 41.7715  3.03318468394088 41.6285000000001  2.59614622875026 41.4025000000001  C 2.16698234031982 41.1805000000001  1.77374616273317 40.8904999999999  1.43317115035489 40.5439999999999  C 1.09259613797661 40.1979999999999  0.806650932497364 39.7984999999999  0.588131704902054 39.3624999999999  C 0.365675193926645 38.9179999999999  0.224425152665567 38.463  0.13780491830346 37.9745  C 0.0526611652088911 37.493  0.0246080211255056 37.002  0.0118118501401937 36.5155  C 0.00590592507004661 36.292  0.00295296253490507 36.0680000000001  0.00196864168987956 35.8445000000001  C 0 35.5795000000002  0 35.3135  0 35.048  C 0 35.048  0 32  0 32  L 0 10  C 0 10  0 6.95100000000002  0 6.95100000000002  C 0 6.68600000000002  0 6.42049999999997  0.00196864168987956 6.15499999999997  C 0.00295296253490507 5.93149999999997  0.00590592507004661 5.70800000000002  0.0118118501401937 5.48450000000002  C 0.0246080211255056 4.99750000000002  0.0526611652088911 4.50650000000009  0.13780491830346 4.02500000000009  C 0.224425152665567 3.53600000000009  0.365675193926645 3.08100000000017  0.588131704902054 2.63700000000017  C 0.806650932497364 2.20050000000017  1.09259613797661 1.80150000000003  1.43317115035489 1.45550000000003  C 1.77374616273317 1.10900000000004  2.16698234031982 0.818999999999974  2.59614622875026 0.59699999999998  C 3.03318468394088 0.370999999999981  3.48105066842732 0.227499999999992  3.96189140122151 0.139499999999998  C 4.43584188810053 0.0529999999999973  4.9196355834295 0.0244999999999607  5.39899983495615 0.0109999999999673  C 5.61850338339649 0.00549999999996942  5.83899125268191 0.00249999999985562  6.05898696154476 0.00149999999985084  C 6.32032414589861 0  6.58116916982974 0  6.8425063541836 0  C 6.8425063541836 0  9.84320845023931 0  9.84320845023931 0  L 134.942911701601 0  L 132.156791549761 0.00100000000000477  C 132.156791549761 0.00100000000000477  135.157985806239 0  135.157985806239 0  C 135.41883083017 0  135.680168014524 0  135.941505198878 0.00150000000000716  C 136.161500907741 0.00250000000001194  136.381496616603 0.00550000000001205  136.601492325466 0.0110000000000099  C 137.080856576993 0.0245000000000033  137.564650272322 0.0530000000000115  138.038600759201 0.139500000000012  C 138.519441491995 0.227500000000006  138.967307476481 0.371000000000009  139.404345931672 0.597000000000008  C 139.833509820102 0.819000000000003  140.226745997689 1.10900000000001  140.567321010068 1.4555  C 140.907896022446 1.8015  141.193841227925 2.2005  141.412360455521 2.637  C 141.634816966496 3.081  141.776067007757 3.536  141.862687242119 4.025  C 141.947338834791 4.5065  141.975884139297 4.9975  141.988680310282 5.48450000000001  C 141.994586235352 5.708  141.997539197887 5.93150000000001  141.998523518732 6.15500000000001  C 142 6.4205  142 6.686  142 6.951  C 142 6.951  142 10  142 10  L 142 32  C 142 32  142 35.048  142 35.048  C 142 35.3135  142 35.5795  141.998523518732 35.8445  Z " fill-rule="nonzero" fill="#fefefe" stroke="none" transform="matrix(1 0 0 1 234 2451 )" />
    </g>
  </defs>
  <g transform="matrix(1 0 0 1 -234 -2451 )">
    <use xlink:href="#widget102" filter="url(#filter101)" />
    <use xlink:href="#widget102" />
  </g>
</svg>