<?xml version="1.0" encoding="utf-8"?>
<svg version="1.1" xmlns:xlink="http://www.w3.org/1999/xlink" width="87px" height="43px" xmlns="http://www.w3.org/2000/svg">
  <defs>
    <filter x="382px" y="2451px" width="87px" height="43px" filterUnits="userSpaceOnUse" id="filter99">
      <feOffset dx="0" dy="1" in="SourceAlpha" result="shadowOffsetInner" />
      <feGaussianBlur stdDeviation="0" in="shadowOffsetInner" result="shadowGaussian" />
      <feComposite in2="shadowGaussian" operator="atop" in="SourceAlpha" result="shadowComposite" />
      <feColorMatrix type="matrix" values="0 0 0 0 0.0156862745098039  0 0 0 0 0.0156862745098039  0 0 0 0 0.0588235294117647  0 0 0 0.36078431372549 0  " in="shadowComposite" />
    </filter>
    <g id="widget100">
      <path d="M 86.9985170561316 35.7945633881306  C 86.997528426886 36.0177520200615  86.9945625391504 36.2414399554193  86.9886307636775 36.4646285873502  C 86.9757785834864 36.950450821956  86.9471083353671 37.440766787406  86.8620862202567 37.9215959877404  C 86.7750868466551 38.4094154360547  86.6332185499304 38.8637815547506  86.4097883404539 39.3076623014767  C 86.1903126479592 39.7430548899414  85.9031158521494 40.141998328225  85.5610501332163 40.4875162998048  C 85.2189844142831 40.8335335748118  84.8240270307175 41.1231295625524  84.3929846796919 41.3448202842019  C 83.9540332947026 41.5705054332685  83.5042069880132 41.71330621343  83.0212616016004 41.8011836166063  C 82.5452366199059 41.8880624129284  82.0593253457557 41.9165227082753  81.5778629032111 41.9295045973809  C 81.3569042668481 41.9359955419337  81.135945630486 41.9384920590695  80.9149869941231 41.9399899693509  C 80.6525059294504 41.9414878796324  80.3900248647775 41.9414878796322  80.1280381147275 41.9414878796322  C 80.1280381147275 41.9414878796322  9.88629245471537 42  9.88629245471537 42  C 9.88629245471537 42  6.87245619989517 42  6.87245619989517 42  C 6.60997513522248 42  6.34798838517283 42.0000000000002  6.08550732050015 41.9985020897187  C 5.86454868413725 41.9970041794373  5.643095733151 41.9945076623015  5.42263141141085 41.9880167177487  C 4.94116896886621 41.9750348286431  4.4552576947179 41.9465745332962  3.97923271302337 41.8596957369741  C 3.49628732661053 41.7718183337977  3.04646101992064 41.6290175536363  2.60750963493128 41.4033324045697  C 2.1764672839057 41.1816416829202  1.78150990034006 40.8920456951796  1.43944418140691 40.5460284201726  C 1.09737846247376 40.2005104485928  0.810181666663515 39.8015670103092  0.590705974168836 39.3661744218445  C 0.367275764692273 38.9222936751184  0.225407467967922 38.4679275564224  0.138408094366434 37.9801081081081  C 0.0528916646331404 37.4992789077738  0.0247157311364851 37.0089629423237  0.0118635509453564 36.523140707718  C 0.00593177547252515 36.2999520757871  0.00296588773666742 36.0762641404292  0.00197725849119593 35.8530755084983  C 0 35.5884446921149  0 35.3228152688771  0 35.0576851490666  C 0 35.0576851490666  0 32.0139314572304  0 32.0139314572304  L 0 10.0445806631374  C 0 10.0445806631374  0 6.99982836444694  0 6.99982836444694  C 0 6.73519754806355  0 6.47006742825296  0.00197725849119593 6.20493730844244  C 0.00296588773666742 5.98174867651153  0.00593177547252515 5.75856004458068  0.0118635509453564 5.53537141264979  C 0.0247157311364851 5.0490498746169  0.0528916646331404 4.55873390916699  0.138408094366434 4.07790470883263  C 0.225407467967922 3.5895859570912  0.367275764692273 3.13521983839527  0.590705974168836 2.6918383950963  C 0.810181666663515 2.25594650320441  1.09737846247376 1.85750236834776  1.43944418140691 1.51198439676793  C 1.78150990034006 1.16596712176097  2.1764672839057 0.876371134020593  2.60750963493128 0.654680412371114  C 3.04646101992064 0.428995263304523  3.49628732661053 0.28569517971579  3.97923271302337 0.197817776539424  C 4.4552576947179 0.111438283644467  4.94116896886621 0.0829779882975367  5.42263141141085 0.0694967957648043  C 5.643095733151 0.0640044580662832  5.86454868413725 0.0610086375033387  6.08550732050015 0.0600100306490569  C 6.34798838517283 0.0585121203676344  6.60997513522248 0.0585121203677905  6.87245619989517 0.0585121203677905  C 6.87245619989517 0.0585121203677905  9.88629245471537 0  9.88629245471537 0  L 79.9120226245921 0  L 77.1137075452849 0.000998606854253334  C 77.1137075452849 0.000998606854253334  80.1280381147275 0  80.1280381147275 0  C 80.3900248647775 0  80.6525059294504 0  80.9149869941231 0.00149791028126648  C 81.135945630486 0.00249651713554821  81.3569042668481 0.00549233769849272  81.5778629032111 0.0109846753970138  C 82.0593253457557 0.0244658679297462  82.5452366199059 0.052926163276676  83.0212616016004 0.139305656171634  C 83.5042069880132 0.227183059348  83.9540332947026 0.370483142936732  84.3929846796919 0.596168292003323  C 84.8240270307175 0.817859013652802  85.2189844142831 1.10745500139318  85.5610501332163 1.45347227640014  C 85.9031158521494 1.79899024797997  86.1903126479592 2.19743438283662  86.4097883404539 2.63332627472851  C 86.6332185499304 3.07670771802748  86.7750868466551 3.53107383672341  86.8620862202567 4.01939258846484  C 86.9471083353671 4.5002217887992  86.9757785834864 4.99053775424911  86.9886307636775 5.476859292282  C 86.9945625391504 5.70004792421289  86.997528426886 5.92323655614374  86.9985170561316 6.14642518807464  C 86.9999999999997 6.41155530788517  87 6.67668542769576  87 6.94131624407915  C 87 6.94131624407915  87 9.98606854276957  87 9.98606854276957  L 87 31.9554193368626  C 87 31.9554193368626  87 34.9991730286988  87 34.9991730286988  C 87 35.2643031485093  86.9999999999997 35.5299325717472  86.9985170561316 35.7945633881306  Z " fill-rule="nonzero" fill="#04040f" stroke="none" fill-opacity="0.2" transform="matrix(1 0 0 1 382 2451 )" />
    </g>
  </defs>
  <g transform="matrix(1 0 0 1 -382 -2451 )">
    <use xlink:href="#widget100" filter="url(#filter99)" />
    <use xlink:href="#widget100" />
  </g>
</svg>