<?xml version="1.0" encoding="utf-8"?>
<svg version="1.1" xmlns:xlink="http://www.w3.org/1999/xlink" width="42px" height="43px" xmlns="http://www.w3.org/2000/svg">
  <defs>
    <filter x="104px" y="2451px" width="42px" height="43px" filterUnits="userSpaceOnUse" id="filter105">
      <feOffset dx="0" dy="1" in="SourceAlpha" result="shadowOffsetInner" />
      <feGaussianBlur stdDeviation="0" in="shadowOffsetInner" result="shadowGaussian" />
      <feComposite in2="shadowGaussian" operator="atop" in="SourceAlpha" result="shadowComposite" />
      <feColorMatrix type="matrix" values="0 0 0 0 0.0156862745098039  0 0 0 0 0.0156862745098039  0 0 0 0 0.0588235294117647  0 0 0 0.36078431372549 0  " in="shadowComposite" />
    </filter>
    <g id="widget106">
      <path d="M 41.9985176470585 35.8445000000001  C 41.9975294117644 36.0680000000001  41.9945647058827 36.292  41.988635294118 36.5155  C 41.9757882352945 37.002  41.9471294117645 37.493  41.8621411764704 37.9745  C 41.775176470588 38.463  41.6333647058826 38.9179999999999  41.410023529412 39.3624999999999  C 41.1906352941179 39.7984999999999  40.9035529411764 40.1979999999999  40.5616235294117 40.5439999999999  C 40.219694117647 40.8904999999999  39.8248941176473 41.1805000000001  39.394023529412 41.4025000000001  C 38.9552470588238 41.6285000000001  38.5056000000005 41.7715  38.022847058824 41.8595  C 37.5470117647063 41.9465  37.0612941176466 41.9750000000001  36.5800235294113 41.988  C 36.359152941176 41.9945000000001  36.1382823529414 41.9970000000001  35.9174117647061 41.9985000000001  C 35.6550352941179 42.0000000000001  35.3926588235294 42  35.1307764705882 42  C 35.1307764705882 42  34.9148470588236 42  34.9148470588236 42  L 9.88235294117647 42  C 9.88235294117647 42  6.86971764705883 42  6.86971764705883 42  C 6.60734117647059 42  6.34545882352941 42  6.08308235294118 41.9985  C 5.86221176470588 41.997  5.64084705882353 41.9945  5.4204705882353 41.988  C 4.9392 41.975  4.45348235294117 41.9465  3.97764705882353 41.8595  C 3.49489411764706 41.7715  3.04524705882353 41.6285  2.60647058823529 41.4025  C 2.1756 41.1805  1.7808 40.8905  1.43887058823529 40.544  C 1.09694117647059 40.198  0.80985882352941 39.7985  0.590470588235294 39.3625  C 0.367129411764707 38.918  0.225317647058822 38.463  0.138352941176471 37.9745  C 0.0528705882352938 37.493  0.0247058823529398 37.002  0.0118588235294122 36.5155  C 0.0059294117647061 36.292  0.00296470588235305 36.068  0.0019764705882342 35.8445  C 0 35.5795  0 35.3135  0 35.048  C 0 35.048  0 32  0 32  L 0 10  C 0 10  0 6.951  0 6.951  C 0 6.686  0 6.4205  0.0019764705882342 6.15500000000001  C 0.00296470588235305 5.93150000000001  0.0059294117647061 5.708  0.0118588235294122 5.48450000000001  C 0.0247058823529398 4.9975  0.0528705882352938 4.5065  0.138352941176471 4.025  C 0.225317647058822 3.536  0.367129411764707 3.081  0.590470588235294 2.637  C 0.80985882352941 2.2005  1.09694117647059 1.8015  1.43887058823529 1.4555  C 1.7808 1.10900000000001  2.1756 0.819000000000003  2.60647058823529 0.597000000000008  C 3.04524705882353 0.371000000000009  3.49489411764706 0.227500000000006  3.97764705882353 0.139500000000012  C 4.45348235294117 0.0530000000000115  4.9392 0.0245000000000033  5.4204705882353 0.0110000000000099  C 5.64084705882353 0.00550000000001205  5.86221176470588 0.00250000000001194  6.08308235294118 0.00150000000000716  C 6.34545882352941 0  6.60734117647059 0  6.86971764705883 0  C 6.86971764705883 0  9.88235294117647 0  9.88235294117647 0  L 34.9148470588236 0  L 32.1176470588235 0.000999999999976353  C 32.1176470588235 0.000999999999976353  35.1307764705882 0  35.1307764705882 0  C 35.3926588235294 0  35.6550352941179 0  35.9174117647061 0.00149999999985084  C 36.1382823529414 0.00249999999985562  36.359152941176 0.00549999999996942  36.5800235294113 0.0109999999999673  C 37.0612941176466 0.0244999999999607  37.5470117647063 0.0529999999999973  38.022847058824 0.139499999999998  C 38.5056000000005 0.227499999999992  38.9552470588238 0.370999999999981  39.394023529412 0.59699999999998  C 39.8248941176473 0.818999999999974  40.219694117647 1.10900000000004  40.5616235294117 1.45550000000003  C 40.9035529411764 1.80150000000003  41.1906352941179 2.20050000000017  41.410023529412 2.63700000000017  C 41.6333647058826 3.08100000000017  41.775176470588 3.53600000000009  41.8621411764704 4.02500000000009  C 41.9471294117645 4.50650000000009  41.9757882352945 4.99750000000002  41.988635294118 5.48450000000002  C 41.9945647058827 5.70800000000002  41.9975294117644 5.93149999999997  41.9985176470585 6.15499999999997  C 41.9999999999997 6.42049999999997  42 6.68600000000002  42 6.95100000000002  C 42 6.95100000000002  42 10  42 10  L 42 32  C 42 32  42 35.048  42 35.048  C 42 35.3135  41.9999999999997 35.5795000000002  41.9985176470585 35.8445000000001  Z " fill-rule="nonzero" fill="#04040f" stroke="none" fill-opacity="0.2" transform="matrix(1 0 0 1 104 2451 )" />
    </g>
  </defs>
  <g transform="matrix(1 0 0 1 -104 -2451 )">
    <use xlink:href="#widget106" filter="url(#filter105)" />
    <use xlink:href="#widget106" />
  </g>
</svg>