<?xml version="1.0" encoding="utf-8"?>
<svg version="1.1" xmlns:xlink="http://www.w3.org/1999/xlink" width="11px" height="20px" xmlns="http://www.w3.org/2000/svg">
  <g transform="matrix(1 0 0 1 -207 -2462 )">
    <path d="M 10.9675001852745 10.3735  C 11.0029999828977 9.75599999999997  10.9995000028504 9.13900000000001  10.9995000028504 8.52200000000005  C 10.9995000028504 8.52200000000005  11 7  11 7  L 9.99950570360569 7  C 9.99950570360569 7  9.99950570360569 8.67150000000004  9.99950570360569 8.67150000000004  C 10.0000057007553 9.24000000000001  10.0000057007553 9.77750000000003  9.9685058803291 10.316  C 9.93600606560366 10.8855  9.86700645895577 11.343  9.75200711454264 11.755  C 9.48800861954204 12.7005  8.94151173500482 13.5105  8.17251611888567 14.0965  C 7.40902047141235 14.679  6.46052587857876 15  5.50053135130388 15  C 4.54003682687936 15  3.59104223689616 14.679  2.82804658657246 14.097  C 2.0590509704533 13.5105  1.51255408591608 12.7005  1.24855559091549 11.7555  C 1.1325562522031 11.342  1.06355664555522 10.885  1.03105683082977 10.3165  C 1.00005700755318 9.77149999999995  1.00005700755318 9.22850000000005  1.0005570047028 8.654  C 1.0005570047028 8.654  1.0005570047028 7  1.0005570047028 7  L 6.27083085049662E-05 7  C 6.27083085049662E-05 7  6.27083085049662E-05 8.51599999999996  6.27083085049662E-05 8.51599999999996  C 6.27083085049662E-05 9.13299999999992  -0.00293727458922888 9.75599999999997  0.0325625230339597 10.3735  C 0.0645623406097826 10.934  0.133061950108043 11.4805  0.285061083593234 12.0245  C 0.605059259351535 13.1695  1.27355544839661 14.1695  2.22105004693094 14.8920000000001  C 3.03004543501989 15.5095  3.99403993949176 15.8815  5.00003420453191 15.9745  C 5.00003420453191 15.9745  5.00003420453191 19  5.00003420453191 19  L 2.00005130679787 19  L 2.00005130679787 20  L 9.00001140151063 20  L 9.00001140151063 19  L 6.00002850377659 19  C 6.00002850377659 19  6.00002850377659 15.9745  6.00002850377659 15.9745  C 7.00552277166712 15.8815  7.97001727328862 15.5095  8.77901266137756 14.8920000000001  C 9.7265072599119 14.1695  10.395003448957 13.1695  10.7150016247153 12.0245  C 10.8670007582005 11.4805  10.9355003676987 10.934  10.9675001852745 10.3735  Z M 2.00002159993335 9.23749999999995  C 2.00002159993335 9.63049999999998  1.9985216045619 10.0265000000001  2.0205215366764 10.4195  C 2.04102147341945 10.7765000000001  2.0845213391913 11.124  2.18152103987794 11.47  C 2.38502041193702 12.1985  2.81051909896964 12.835  3.41351723828967 13.295  C 4.01301538840966 13.7525000000001  4.74601312658807 14  5.50001079996667 14  C 6.25350847488814 14  6.98700621152369 13.7525000000001  7.58650436164368 13.295  C 8.18950250096371 12.835  8.61500118799633 12.1985  8.81850056005541 11.47  C 8.91550026074205 11.124  8.95850012805674 10.7765000000001  8.97900006479981 10.4195  C 9.00149999537145 10.0265000000001  8.99950000154286 9.63400000000001  8.99950000154286 9.24099999999999  C 8.99950000154286 9.24099999999999  9 4.76250000000005  9 4.76250000000005  C 9 4.36950000000002  9.00149999537145 3.97350000000006  8.97900006479981 3.58050000000003  C 8.95850012805674 3.22350000000006  8.91550026074205 2.87599999999998  8.81850056005541 2.52999999999997  C 8.61500118799633 1.80150000000003  8.18950250096371 1.16499999999996  7.58650436164368 0.705000000000041  C 7.43650482449939 0.59050000000002  7.27850531204075 0.489500000000021  7.11350582118203 0.402000000000044  C 6.95250631798051 0.316500000000019  6.78500683483605 0.245000000000005  6.61350736403442 0.186500000000024  C 6.26100845174534 0.0674999999999955  5.87650963819883 0  5.50001079996667 0  C 5.12301196327736 0  4.75101311115954 0.0620000000000118  4.39851419887047 0.18100000000004  C 4.22751472652598 0.239500000000021  4.04651528503855 0.317000000000007  3.88601578029416 0.402000000000044  C 3.7215162878926 0.489500000000021  3.56351677543395 0.59050000000002  3.41351723828967 0.705000000000041  C 2.81051909896964 1.16499999999996  2.38502041193702 1.80150000000003  2.18152103987794 2.52999999999997  C 2.0845213391913 2.87599999999998  2.04102147341945 3.22350000000006  2.0205215366764 3.58050000000003  C 1.9985216045619 3.97350000000006  2.00002159993335 4.36599999999999  2.00002159993335 4.75900000000001  C 2.00002159993335 4.75900000000001  2.00002159993335 9.23749999999995  2.00002159993335 9.23749999999995  Z M 3.14469482353697 11.201  C 3.07817705581938 10.9645  3.03816636847046 10.698  3.01916129197971 10.3625  C 2.99915594830526 10.018  2.99965608189711 9.67399999999998  3.00015621548897 9.32899999999995  C 3.00015621548897 9.32899999999995  3.00015621548897 4.67100000000005  3.00015621548897 4.67100000000005  C 2.99965608189711 4.32650000000001  2.99915594830526 3.98199999999997  3.01916129197971 3.63750000000005  C 3.03816636847046 3.30200000000002  3.07817705581938 3.03549999999996  3.14419468994511 2.79949999999997  C 3.2912339659524 2.274  3.59381478902866 1.82500000000005  4.01992860929471 1.5  C 4.12445652999378 1.41999999999996  4.23798685534635 1.34749999999997  4.35551824943383 1.28449999999998  C 4.46404723886778 1.22749999999996  4.58307903373084 1.17650000000003  4.70861256528809 1.13350000000003  C 4.93867401754441 1.06150000000002  5.25025724527417 1  5.49982390761309 1  C 5.7468899019927 1  5.99095509482115 1.03750000000002  6.2270181501798 1.11099999999999  C 6.34554981145099 1.15149999999994  6.53560057635839 1.22699999999998  6.64562996656794 1.28549999999996  C 6.76166095987982 1.34749999999997  6.87519128523239 1.41999999999996  6.97971920593146 1.5  C 7.40583302619751 1.82449999999994  7.70891398286562 2.274  7.85595325887293 2.79949999999997  C 7.92197089299866 3.03650000000005  7.96198158034758 3.303  7.98098665683833 3.63800000000003  C 8.00099200051278 3.98199999999997  7.99999173332905 4.32650000000001  7.99999173332905 4.67100000000005  C 7.99999173332905 4.67100000000005  7.99999173332905 9.32899999999995  7.99999173332905 9.32899999999995  C 7.99999173332905 9.67399999999998  8.00099200051278 10.018  7.98098665683833 10.3625  C 7.96198158034758 10.6975  7.92197089299866 10.9640000000001  7.85545312528107 11.201  C 7.70891398286562 11.7255  7.40583302619751 12.175  6.97971920593146 12.5  C 6.55710632080844 12.8225  6.03146591576193 13  5.49982390761309 13  C 4.96818189946424 13  4.44254149441774 12.8225  4.01992860929471 12.5  C 3.59381478902866 12.175  3.29073383236054 11.7255  3.14469482353697 11.201  Z " fill-rule="nonzero" fill="#000000" stroke="none" transform="matrix(1 0 0 1 207 2462 )" />
  </g>
</svg>