<?xml version="1.0" encoding="utf-8"?>
<svg version="1.1" xmlns:xlink="http://www.w3.org/1999/xlink" width="7px" height="7px" xmlns="http://www.w3.org/2000/svg">
  <defs>
    <mask fill="white" id="clip108">
      <path d="M 4.17229087452472 3.49976235741445  C 4.17229087452472 3.49976235741445  6.86097908745247 6.18845057034221  6.86097908745247 6.18845057034221  C 7.04634030418251 6.37428707224335  7.04634030418251 6.67514258555133  6.86097908745247 6.86097908745247  C 6.67514258555133 7.04634030418251  6.37428707224335 7.04634030418251  6.18845057034221 6.86097908745247  C 6.18845057034221 6.86097908745247  3.50023764258555 4.17181558935361  3.50023764258555 4.17181558935361  C 3.50023764258555 4.17181558935361  0.811549429657795 6.86097908745247  0.811549429657795 6.86097908745247  C 0.625712927756655 7.04634030418251  0.324857414448669 7.04634030418251  0.139020912547529 6.86097908745247  C -0.0463403041825096 6.67514258555133  -0.0463403041825096 6.37428707224335  0.139020912547529 6.18845057034221  C 0.139020912547529 6.18845057034221  2.82818441064639 3.49976235741445  2.82818441064639 3.49976235741445  C 2.82818441064639 3.49976235741445  0.139020912547529 0.811549429657795  0.139020912547529 0.811549429657795  C -0.0463403041825096 0.625712927756653  -0.0463403041825096 0.32485741444867  0.139020912547529 0.139020912547529  C 0.324857414448669 -0.0463403041825096  0.625712927756655 -0.0463403041825096  0.811549429657795 0.139020912547529  C 0.811549429657795 0.139020912547529  3.50023764258555 2.82770912547529  3.50023764258555 2.82770912547529  C 3.50023764258555 2.82770912547529  6.18845057034221 0.139020912547529  6.18845057034221 0.139020912547529  C 6.37428707224335 -0.0463403041825096  6.67514258555133 -0.0463403041825096  6.86097908745247 0.139020912547529  C 7.04634030418251 0.32485741444867  7.04634030418251 0.625712927756653  6.86097908745247 0.811549429657795  C 6.86097908745247 0.811549429657795  4.17229087452472 3.49976235741445  4.17229087452472 3.49976235741445  Z " fill-rule="evenodd" />
    </mask>
  </defs>
  <g transform="matrix(1 0 0 1 -446 -2415 )">
    <path d="M 4.17229087452472 3.49976235741445  C 4.17229087452472 3.49976235741445  6.86097908745247 6.18845057034221  6.86097908745247 6.18845057034221  C 7.04634030418251 6.37428707224335  7.04634030418251 6.67514258555133  6.86097908745247 6.86097908745247  C 6.67514258555133 7.04634030418251  6.37428707224335 7.04634030418251  6.18845057034221 6.86097908745247  C 6.18845057034221 6.86097908745247  3.50023764258555 4.17181558935361  3.50023764258555 4.17181558935361  C 3.50023764258555 4.17181558935361  0.811549429657795 6.86097908745247  0.811549429657795 6.86097908745247  C 0.625712927756655 7.04634030418251  0.324857414448669 7.04634030418251  0.139020912547529 6.86097908745247  C -0.0463403041825096 6.67514258555133  -0.0463403041825096 6.37428707224335  0.139020912547529 6.18845057034221  C 0.139020912547529 6.18845057034221  2.82818441064639 3.49976235741445  2.82818441064639 3.49976235741445  C 2.82818441064639 3.49976235741445  0.139020912547529 0.811549429657795  0.139020912547529 0.811549429657795  C -0.0463403041825096 0.625712927756653  -0.0463403041825096 0.32485741444867  0.139020912547529 0.139020912547529  C 0.324857414448669 -0.0463403041825096  0.625712927756655 -0.0463403041825096  0.811549429657795 0.139020912547529  C 0.811549429657795 0.139020912547529  3.50023764258555 2.82770912547529  3.50023764258555 2.82770912547529  C 3.50023764258555 2.82770912547529  6.18845057034221 0.139020912547529  6.18845057034221 0.139020912547529  C 6.37428707224335 -0.0463403041825096  6.67514258555133 -0.0463403041825096  6.86097908745247 0.139020912547529  C 7.04634030418251 0.32485741444867  7.04634030418251 0.625712927756653  6.86097908745247 0.811549429657795  C 6.86097908745247 0.811549429657795  4.17229087452472 3.49976235741445  4.17229087452472 3.49976235741445  Z " fill-rule="nonzero" fill="#000000" stroke="none" transform="matrix(1 0 0 1 446 2415 )" />
    <path d="M 4.17229087452472 3.49976235741445  C 4.17229087452472 3.49976235741445  6.86097908745247 6.18845057034221  6.86097908745247 6.18845057034221  C 7.04634030418251 6.37428707224335  7.04634030418251 6.67514258555133  6.86097908745247 6.86097908745247  C 6.67514258555133 7.04634030418251  6.37428707224335 7.04634030418251  6.18845057034221 6.86097908745247  C 6.18845057034221 6.86097908745247  3.50023764258555 4.17181558935361  3.50023764258555 4.17181558935361  C 3.50023764258555 4.17181558935361  0.811549429657795 6.86097908745247  0.811549429657795 6.86097908745247  C 0.625712927756655 7.04634030418251  0.324857414448669 7.04634030418251  0.139020912547529 6.86097908745247  C -0.0463403041825096 6.67514258555133  -0.0463403041825096 6.37428707224335  0.139020912547529 6.18845057034221  C 0.139020912547529 6.18845057034221  2.82818441064639 3.49976235741445  2.82818441064639 3.49976235741445  C 2.82818441064639 3.49976235741445  0.139020912547529 0.811549429657795  0.139020912547529 0.811549429657795  C -0.0463403041825096 0.625712927756653  -0.0463403041825096 0.32485741444867  0.139020912547529 0.139020912547529  C 0.324857414448669 -0.0463403041825096  0.625712927756655 -0.0463403041825096  0.811549429657795 0.139020912547529  C 0.811549429657795 0.139020912547529  3.50023764258555 2.82770912547529  3.50023764258555 2.82770912547529  C 3.50023764258555 2.82770912547529  6.18845057034221 0.139020912547529  6.18845057034221 0.139020912547529  C 6.37428707224335 -0.0463403041825096  6.67514258555133 -0.0463403041825096  6.86097908745247 0.139020912547529  C 7.04634030418251 0.32485741444867  7.04634030418251 0.625712927756653  6.86097908745247 0.811549429657795  C 6.86097908745247 0.811549429657795  4.17229087452472 3.49976235741445  4.17229087452472 3.49976235741445  Z " stroke-width="1.5" stroke="#000000" fill="none" transform="matrix(1 0 0 1 446 2415 )" mask="url(#clip108)" />
  </g>
</svg>