<?xml version="1.0" encoding="utf-8"?>
<svg version="1.1" xmlns:xlink="http://www.w3.org/1999/xlink" width="14px" height="9px" xmlns="http://www.w3.org/2000/svg">
  <defs>
    <mask fill="white" id="clip85">
      <path d="M 0.352630557773637 2.52908479765665  L 0.90002900043487 3.10529365257844  C 2.3956264703495 1.79451039322521  4.35502931257042 1  6.5 1  C 8.64497068717492 1  10.6043735291855 1.79451039303694  12.0999709998489 3.10529368436892  L 13.0875252064718 2.06576294056049  C 11.4014666439468 0.770200873656904  9.29067834831972 0  7 0  C 4.44811965870372 0  2.11949346702454 0.95586464347889  0.352630557773637 2.52908479765665  Z M 2.27900291641822 4.55684517517693  L 2.82802727246008 5.1347646640852  C 3.69108248771295 4.42567816981227  4.7958300120099 4  6 4  C 7.46509870622685 4  8.78301948171224 4.63014363019829  9.69752041677839 5.6341890349704  L 10.7209971060565 4.55684515291614  C 9.58531703506628 3.58615584945346  8.1111105345658 3  6.5 3  C 4.8888894654342 3  3.41468296493372 3.58615584945346  2.27900291641822 4.55684517517693  Z M 7 6  C 6.06856569865863 6  5.2362744135487 6.42448171299839  4.68602190741035 7.09054937622113  L 6.5 9  L 8.78842625165794 6.59113026247087  C 8.28902759860648 6.21975219824981  7.67017673729424 6  7 6  Z " fill-rule="evenodd" />
    </mask>
  </defs>
  <g transform="matrix(1 0 0 1 -126 -231 )">
    <path d="M 0.352630557773637 2.52908479765665  L 0.90002900043487 3.10529365257844  C 2.3956264703495 1.79451039322521  4.35502931257042 1  6.5 1  C 8.64497068717492 1  10.6043735291855 1.79451039303694  12.0999709998489 3.10529368436892  L 13.0875252064718 2.06576294056049  C 11.4014666439468 0.770200873656904  9.29067834831972 0  7 0  C 4.44811965870372 0  2.11949346702454 0.95586464347889  0.352630557773637 2.52908479765665  Z M 2.27900291641822 4.55684517517693  L 2.82802727246008 5.1347646640852  C 3.69108248771295 4.42567816981227  4.7958300120099 4  6 4  C 7.46509870622685 4  8.78301948171224 4.63014363019829  9.69752041677839 5.6341890349704  L 10.7209971060565 4.55684515291614  C 9.58531703506628 3.58615584945346  8.1111105345658 3  6.5 3  C 4.8888894654342 3  3.41468296493372 3.58615584945346  2.27900291641822 4.55684517517693  Z M 7 6  C 6.06856569865863 6  5.2362744135487 6.42448171299839  4.68602190741035 7.09054937622113  L 6.5 9  L 8.78842625165794 6.59113026247087  C 8.28902759860648 6.21975219824981  7.67017673729424 6  7 6  Z " fill-rule="nonzero" fill="#000000" stroke="none" transform="matrix(1 0 0 1 126 231 )" />
    <path d="M 0.352630557773637 2.52908479765665  L 0.90002900043487 3.10529365257844  C 2.3956264703495 1.79451039322521  4.35502931257042 1  6.5 1  C 8.64497068717492 1  10.6043735291855 1.79451039303694  12.0999709998489 3.10529368436892  L 13.0875252064718 2.06576294056049  C 11.4014666439468 0.770200873656904  9.29067834831972 0  7 0  C 4.44811965870372 0  2.11949346702454 0.95586464347889  0.352630557773637 2.52908479765665  Z " stroke-width="2" stroke="#000000" fill="none" transform="matrix(1 0 0 1 126 231 )" mask="url(#clip85)" />
    <path d="M 2.27900291641822 4.55684517517693  L 2.82802727246008 5.1347646640852  C 3.69108248771295 4.42567816981227  4.7958300120099 4  6 4  C 7.46509870622685 4  8.78301948171224 4.63014363019829  9.69752041677839 5.6341890349704  L 10.7209971060565 4.55684515291614  C 9.58531703506628 3.58615584945346  8.1111105345658 3  6.5 3  C 4.8888894654342 3  3.41468296493372 3.58615584945346  2.27900291641822 4.55684517517693  Z " stroke-width="2" stroke="#000000" fill="none" transform="matrix(1 0 0 1 126 231 )" mask="url(#clip85)" />
    <path d="M 7 6  C 6.06856569865863 6  5.2362744135487 6.42448171299839  4.68602190741035 7.09054937622113  L 6.5 9  L 8.78842625165794 6.59113026247087  C 8.28902759860648 6.21975219824981  7.67017673729424 6  7 6  Z " stroke-width="2" stroke="#000000" fill="none" transform="matrix(1 0 0 1 126 231 )" mask="url(#clip85)" />
  </g>
</svg>