<?xml version="1.0" encoding="utf-8"?>
<svg version="1.1" xmlns:xlink="http://www.w3.org/1999/xlink" width="17px" height="16px" xmlns="http://www.w3.org/2000/svg">
  <g transform="matrix(1 0 0 1 -439 -1917 )">
    <path d="M 16.3158034133711 3.99518964873634  C 16.5491463403933 4.02397476540291  16.7789479308774 3.92191874390059  16.9052633989475 3.73340755734178  C 17.0315788670175 3.54489637078297  17.0315788670175 3.30400016990789  16.9052633989475 3.11548898334908  C 16.7789479308774 2.92697779679027  16.5491463403933 2.82492177528795  16.3158034133711 2.85370689195453  C 16.3158034133711 2.85370689195453  13.3115124283167 2.85370689195453  13.3115124283167 2.85370689195453  C 13.3115124283167 2.85370689195453  13.3115124283167 1.71222413517272  13.3115124283167 1.71222413517272  C 13.314866247327 0.770138478072737  12.5135931644815 0.00370155224936308  11.5214641345991 0  C 11.5214641345991 0  5.48863771807428 0  5.48863771807428 0  C 4.49283559965589 0.000528547141521063  3.68556117115508 0.766653002039154  3.68444683061391 1.71222413517272  C 3.68444683061391 1.71222413517272  3.68444683061391 2.85370689195453  3.68444683061391 2.85370689195453  C 3.68444683061391 2.85370689195453  0.684196586628876 2.85370689195453  0.684196586628876 2.85370689195453  C 0.450853659606749 2.82492177528795  0.221052069122603 2.92697779679027  0.0947366010525443 3.11548898334908  C -0.0315788670175148 3.30400016990789  -0.0315788670175148 3.54489637078297  0.0947366010525443 3.73340755734178  C 0.221052069122603 3.92191874390059  0.450853659606748 4.02397476540291  0.684196586628876 3.99518964873634  C 0.684196586628876 3.99518964873634  16.3158034133711 3.99518964873634  16.3158034133711 3.99518964873634  Z M 9.5 5  C 9.7533345141209 5  9.967327679067 5.23329767782738  9.99996481694822 5.54506708575852  C 9.99996481694822 5.54506708575852  9.99996481694822 12.3742837189596  9.99996481694822 12.3742837189596  C 10.0015584854302 12.5408208420156  9.94895303895827 12.7011148167304  9.85405586883309 12.8188826494587  C 9.75915869870791 12.936650482187  9.62999401735012 13.0019340877205  9.49579861498363 12.9999563376679  C 9.36160321261714 13.0019340877205  9.24084130129209 12.9283081806042  9.14594413116691 12.8105403478759  C 9.05104696104173 12.6927725151476  8.99844151456985 12.5324785404328  9.00003518305178 12.3659414173768  C 9.00003518305178 12.3659414173768  9.00003518305178 5.54506708575852  9.00003518305178 5.54506708575852  C 9.032672320933 5.23329767782738  9.2466654858791 5  9.5 5  Z M 6.5 5  C 6.7533345141209 5  6.96732767906699 5.23329767782738  6.99996481694822 5.54506708575852  C 6.99996481694822 5.54506708575852  6.99996481694822 12.3742837189596  6.99996481694822 12.3742837189596  C 7.00155848543015 12.5408208420156  6.94895303895827 12.7011148167304  6.85405586883309 12.8188826494587  C 6.75915869870791 12.936650482187  6.62999401735012 13.0019340877205  6.49579861498363 12.9999563376679  C 6.36160321261714 13.0019340877205  6.24084130129209 12.9283081806042  6.14594413116691 12.8105403478759  C 6.05104696104173 12.6927725151476  5.99844151456985 12.5324785404328  6.00003518305178 12.3659414173768  C 6.00003518305178 12.3659414173768  6.00003518305178 5.54506708575852  6.00003518305178 5.54506708575852  C 6.032672320933 5.23329767782738  6.2466654858791 5  6.5 5  Z M 4 3  L 10.9996616707448 3  C 10.9996616707448 3  10.9996616707448 1.67039113776018  10.9996616707448 1.67039113776018  C 11.0049773382645 1.49468078672968  10.9474683381829 1.32404817735597  10.8403282024566 1.19763930037809  C 10.7331880667302 1.07123042340021  10.5856131439482 0.999895555323367  10.4314596037004 1.00000011478211  C 10.4314596037004 1.00000011478211  4.58779524177003 1.00000011478211  4.58779524177003 1.00000011478211  C 4.26316489371734 1.00000011478211  4 1.30014439934593  4 1.67039113776018  C 4 1.67039113776018  4 3  4 3  Z M 14 14.2466421265572  C 14.0000013949269 15.2138504269229  13.1930224496029 15.9983816927499  12.1964735516373 16  C 12.1964735516373 16  3.79949622166247 16  3.79949622166247 16  C 2.80628526927829 15.9994611701921  2.00111144092758 15.2184320804582  2 14.2544652514805  C 2 14.2544652514805  2 5.51114525903633  2 5.51114525903633  C 2.03913443542908 5.21877857805283  2.29572867865973 5  2.59949622166247 5  C 2.90326376466521 5  3.15985800789586 5.21877857805283  3.19899244332494 5.51114525903633  C 3.19899244332494 5.51114525903633  3.19899244332494 14.2544652514805  3.19899244332494 14.2544652514805  C 3.19708151239317 14.4106380660345  3.26015948374176 14.5609562697351  3.3739484805031 14.6713949128652  C 3.48773747726444 14.7818335559953  3.64261585234469 14.8430542870449  3.80352644836272 14.8411996207308  C 3.80352644836272 14.8411996207308  12.1964735516373 14.8411996207308  12.1964735516373 14.8411996207308  C 12.3573841476553 14.8430542870449  12.5122625227356 14.7818335559953  12.6260515194969 14.6713949128652  C 12.7398405162582 14.5609562697351  12.8029184876068 14.4106380660345  12.8010075566751 14.2544652514805  C 12.8010075566751 14.2544652514805  12.8010075566751 5.53265885257551  12.8010075566751 5.53265885257551  C 12.8401419921041 5.24029217159201  13.0967362353348 5.02151359353917  13.4005037783375 5.02151359353917  C 13.7042713213403 5.02151359353917  13.9608655645709 5.24029217159201  14 5.53265885257551  C 14 5.53265885257551  14 14.2466421265572  14 14.2466421265572  Z " fill-rule="nonzero" fill="#999999" stroke="none" transform="matrix(1 0 0 1 439 1917 )" />
  </g>
</svg>