<?xml version="1.0" encoding="utf-8"?>
<svg version="1.1" xmlns:xlink="http://www.w3.org/1999/xlink" width="17px" height="11px" xmlns="http://www.w3.org/2000/svg">
  <g transform="matrix(1 0 0 1 -73 -1077 )">
    <path d="M 17 9.25  C 17 9.67000000000007  16.6700000000001 10  16.25 10  L 14.75 10  C 14.3299999999999 10  14 9.67000000000007  14 9.25  L 14 0.75  C 14 0.329999999999927  14.3299999999999 0  14.75 0  L 16.25 0  C 16.6700000000001 0  17 0.329999999999927  17 0.75  L 17 9.25  Z M 12 9.25  C 12 9.67000000000007  11.6700000000001 10  11.25 10  L 9.75 10  C 9.32999999999993 10  9 9.67000000000007  9 9.25  L 9 2.75  C 9 2.32999999999993  9.32999999999993 2  9.75 2  L 11.25 2  C 11.6700000000001 2  12 2.32999999999993  12 2.75  L 12 9.25  Z M 7.25 10  L 5.75 10  C 5.32999999999993 10  5 9.67000000000007  5 9.25  L 5 4.75  C 5 4.32999999999993  5.32999999999993 4  5.75 4  L 7.25 4  C 7.67000000000007 4  8 4.32999999999993  8 4.75  L 8 9.25  C 8 9.67000000000007  7.67000000000007 10  7.25 10  Z M 0.75 11  C 0.329999999999927 11  0 10.6700000000001  0 10.25  L 0 6.75  C 0 6.32999999999993  0.329999999999927 6  0.75 6  L 2.25 6  C 2.67000000000007 6  3 6.32999999999993  3 6.75  L 3 10.25  C 3 10.6700000000001  2.67000000000007 11  2.25 11  L 0.75 11  Z " fill-rule="nonzero" fill="#000000" stroke="none" transform="matrix(1 0 0 1 73 1077 )" />
  </g>
</svg>