<?xml version="1.0" encoding="utf-8"?>
<svg version="1.1" xmlns:xlink="http://www.w3.org/1999/xlink" width="12px" height="12px" xmlns="http://www.w3.org/2000/svg">
  <g transform="matrix(1 0 0 1 -1953 -270 )">
    <path d="M 10.4166522399998 11.54802304  L 5.89116882400003 7.02253967200005  L 1.36568542400005 11.54802304  C 1.05326599199998 11.86044248  0.546734008799831 11.86044248  0.234314575200187 11.54802304  C -0.0781048583198753 11.23560368  -0.0781048583198753 10.7290716799999  0.234314575200187 10.41665224  L 4.75979797600007 5.89116882399998  L 0.234314575200187 1.36568542399999  C -0.0781048583198753 1.05326599199998  -0.0781048583198753 0.546734008800001  0.234314575200187 0.23431457519996  C 0.546734008799831 -0.078104858319989  1.05326599199998 -0.078104858319989  1.36568542400005 0.23431457519996  L 5.89116882400003 4.75979797600002  L 10.4166522399998 0.23431457519996  C 10.7290716800001 -0.078104858319989  11.2356036799999 -0.078104858319989  11.5480230400001 0.23431457519996  C 11.8604424800001 0.546734008800001  11.8604424800001 1.05326599199998  11.5480230400001 1.36568542399999  L 7.02253967199999 5.89116882399998  L 11.5480230400001 10.41665224  C 11.8604424800001 10.7290716799999  11.8604424800001 11.23560368  11.5480230400001 11.54802304  C 11.2356036799999 11.86044248  10.7290716800001 11.86044248  10.4166522399998 11.54802304  Z " fill-rule="nonzero" fill="#cccccc" stroke="none" transform="matrix(1 0 0 1 1953 270 )" />
  </g>
</svg>