<?xml version="1.0" encoding="UTF-8"?>
<svg width="375px" height="216px" viewBox="0 0 375 216" version="1.1" xmlns="http://www.w3.org/2000/svg" xmlns:xlink="http://www.w3.org/1999/xlink">
    <!-- Generator: Sketch 54.1 (76490) - https://sketchapp.com -->
    <title>Keyboard Numeric Light</title>
    <desc>Created with Sketch.</desc>
    <g id="Page-1" stroke="none" stroke-width="1" fill="none" fill-rule="evenodd">
        <g id="输入验证码" transform="translate(0.000000, -451.000000)">
            <g id="Keyboard-Numeric-Light" transform="translate(0.000000, 451.000000)">
                <rect id="background" fill="#D2D5DB" x="0" y="0" width="375" height="216"></rect>
                <g id="Delete" transform="translate(301.118000, 179.000000)" fill="#3F434A" fill-rule="nonzero">
                    <path d="M7.952,15.983 C8.046,16.083 8.14,16.173 8.291,16.32 C8.366,16.397 8.443,16.472 8.548,16.573 C8.577,16.599 8.583,16.606 8.648,16.673 L8.697,16.724 C8.90448746,16.9310753 9.1430251,17.1044959 9.404,17.238 C9.66767601,17.3720713 9.95025869,17.4651415 10.242,17.514 C10.5725889,17.5688909 10.9069053,17.5983108 11.242,17.602 L11.442,17.607 C11.551,17.607 11.642,17.607 11.726,17.607 L17.618,17.607 L17.618,19 L17.618,18.308 L17.618,17.616 L18.213,17.616 C18.344,17.616 18.451,17.616 18.704,17.607 C19.0347561,17.60275 19.3647091,17.5733318 19.691,17.519 C19.9821418,17.4702955 20.2640882,17.3772127 20.527,17.243 C20.7878745,17.110654 21.0261561,16.9378492 21.233,16.731 C21.4384976,16.5247888 21.6117734,16.2888101 21.747,16.031 C21.8797774,15.7659959 21.9730976,15.4830033 22.024,15.191 C22.0775657,14.8602779 22.1063126,14.5260116 22.11,14.191 C22.115,14.012 22.118,13.857 22.118,13.709 L22.118,6.59 C22.118,6.442 22.118,6.442 22.118,6.303 C22.118,6.239 22.118,6.239 22.118,6.177 C22.118,5.993 22.118,5.912 22.111,5.799 C22.1069065,5.4706825 22.0784954,5.14311937 22.026,4.819 C21.9758111,4.5267622 21.8831646,4.24343242 21.751,3.978 C21.6169049,3.7165777 21.4428074,3.47769979 21.235,3.27 C21.0273167,3.06227286 20.7880129,2.88878604 20.526,2.756 C20.2621266,2.62155565 19.9791561,2.52846881 19.687,2.48 C19.3586344,2.4236258 19.0261662,2.39452646 18.693,2.393 C18.451,2.386 18.343,2.384 18.212,2.384 L11.726,2.384 C11.64,2.384 11.55,2.384 11.442,2.384 L11.23,2.389 C10.9011607,2.39090507 10.5730423,2.42000426 10.249,2.476 C9.95764901,2.52461079 9.67540842,2.61734217 9.412,2.751 C9.14470764,2.8882589 8.900715,3.06678187 8.689,3.28 C8.615,3.359 8.589,3.39 8.561,3.414 C8.461,3.508 8.375,3.592 8.282,3.687 C8.131,3.834 8.046,3.918 7.949,4.018 L5.614,6.354 C5.58990761,6.37341764 5.56687449,6.39411405 5.545,6.416 L5.49,6.47 C5.373,6.584 5.326,6.631 5.265,6.695 L3.195,8.763 L3.152,8.806 L3.105,8.854 L3.005,8.954 C2.931,9.028 2.905,9.059 2.868,9.096 C2.71359593,9.2452049 2.56896316,9.40420074 2.435,9.572 L2.384,9.629 C2.35422994,9.6584738 2.32895923,9.69216808 2.309,9.729 C2.26163842,9.89841891 2.26163842,10.0775811 2.309,10.247 C2.33160909,10.2904586 2.36022315,10.3305183 2.394,10.366 C2.558,10.566 2.694,10.715 2.847,10.866 L2.888,10.908 L2.928,10.948 L3.005,11.026 L3.105,11.126 L3.205,11.226 L5.264,13.288 L5.464,13.488 L5.599,13.621 C5.62328342,13.6409065 5.64632644,13.6622797 5.668,13.685 L7.952,15.983 Z M11.868,6.556 C11.8456058,6.52000473 11.8194597,6.48648419 11.79,6.456 L11.79,6.456 C11.5520343,6.26897074 11.2120269,6.28846297 10.9969944,6.50146208 C10.7819618,6.7144612 10.7592401,7.05426811 10.944,7.294 L10.933,7.305 L13.626,10 L11.035,12.591 C10.83219,12.7096556 10.7173063,12.9357757 10.7410633,13.169542 C10.7648203,13.4033082 10.9228451,13.6016935 11.1453794,13.6771226 C11.3679137,13.7525517 11.6139976,13.6911411 11.775,13.52 L11.785,13.53 L14.471,10.843 L17.16,13.525 L17.167,13.518 C17.405852,13.7038624 17.7457343,13.6827415 17.9597379,13.4687379 C18.1737415,13.2547343 18.1948624,12.914852 18.009,12.676 L18.009,12.676 C17.9826807,12.6493279 17.9538844,12.6252194 17.923,12.604 L15.315,10.004 L18,7.3 L18,7.3 C18.1935011,7.06113678 18.1751698,6.71466569 17.9575437,6.49755466 C17.7399176,6.28044363 17.393404,6.26293338 17.155,6.457 L17.155,6.457 C17.1307775,6.48139396 17.1086962,6.50782454 17.089,6.536 L14.471,9.155 L11.868,6.556 Z M4.653,14.646 L4.488,14.483 L4.288,14.283 L2.225,12.217 L2.125,12.117 L2.025,12.017 L1.938,11.929 L1.863,11.853 C1.68901538,11.6803993 1.52380737,11.4991711 1.368,11.31 C1.22564831,11.1557428 1.10975501,10.9790309 1.025,10.787 L1,10.72 C0.849042828,10.2518688 0.849042828,9.74813121 1,9.28 L1.024,9.217 C1.10775902,9.02395641 1.22450386,8.846978 1.369,8.694 C1.51837748,8.50737606 1.67900964,8.33004617 1.85,8.163 C1.898,8.109 1.942,8.063 2.026,7.981 L2.119,7.887 L2.171,7.834 L2.222,7.784 L4.275,5.733 C4.339,5.666 4.397,5.609 4.487,5.521 L4.572,5.437 L4.664,5.347 L6.964,3.047 C7.064,2.947 7.156,2.853 7.304,2.709 C7.404,2.609 7.499,2.514 7.609,2.409 C7.696,2.316 7.715,2.296 7.726,2.286 C8.03640895,1.97606479 8.39339095,1.71659489 8.784,1.517 C9.17227036,1.3194363 9.58838008,1.18219427 10.018,1.11 C10.4107315,1.04181116 10.8084042,1.00602397 11.207,1.003 L11.407,0.998 C11.526,0.998 11.626,0.998 11.724,0.998 L18.21,0.998 C18.358,0.998 18.474,0.998 18.71,1.007 C19.1122275,1.00942038 19.5135766,1.04487289 19.91,1.113 C20.340046,1.18476008 20.7565501,1.32202094 21.145,1.52 C21.5367172,1.71876237 21.8944824,1.97831095 22.205,2.289 C22.5157866,2.60027089 22.7759353,2.9582705 22.976,3.35 C23.1712991,3.74017729 23.3080988,4.15697831 23.382,4.587 C23.4444399,4.97732264 23.4778647,5.3717363 23.482,5.767 C23.482,5.879 23.482,5.967 23.489,6.158 C23.489,6.22 23.489,6.22 23.489,6.291 L23.489,13.703 C23.489,13.866 23.489,14.035 23.481,14.215 C23.4759552,14.6170578 23.4408573,15.0181758 23.376,15.415 C23.301297,15.8458557 23.163482,16.2633442 22.967,16.654 C22.7662951,17.0419162 22.507661,17.3969901 22.2,17.707 C21.8898074,18.0176289 21.5323809,18.2771766 21.141,18.476 C20.7519644,18.6744748 20.334776,18.8120762 19.904,18.884 C19.5115849,18.9493133 19.1147786,18.9847484 18.717,18.99 C18.462,18.997 18.346,18.999 18.198,18.999 L17.603,18.999 L17.603,17.614 L17.603,18.306 L17.603,19 L11.711,19 C11.611,19 11.511,19 11.394,19 L11.201,18.995 C10.7988826,18.9903113 10.3977127,18.9548746 10.001,18.889 C9.56965466,18.8167997 9.1518483,18.679217 8.762,18.481 C8.37737576,18.2852104 8.02551133,18.0308424 7.719,17.727 C7.694,17.704 7.681,17.69 7.627,17.633 L7.586,17.59 C7.457,17.467 7.371,17.383 7.295,17.304 C7.149,17.162 7.048,17.061 6.95,16.961 L4.712,14.724 L4.653,14.646 Z" id="Delete-2"></path>
                </g>
                <g id="_0" transform="translate(129.000000, 167.000000)">
                    <g id="Group" fill="#FFFFFF">
                        <rect id="Key_Background-11" x="0" y="0" width="117" height="46" rx="5"></rect>
                    </g>
                    <g id="_" transform="translate(51.000000, 3.000000)" fill="#000000" font-family="Helvetica" font-size="25" font-weight="normal">
                        <text id="0">
                            <tspan x="0.548" y="24">0</tspan>
                        </text>
                    </g>
                </g>
                <g id="_9" transform="translate(252.000000, 110.000000)">
                    <g id="Group" transform="translate(0.000000, 4.000000)" fill="#FFFFFF">
                        <rect id="Key_Background-12" x="0" y="0" width="117" height="46" rx="5"></rect>
                    </g>
                    <g id="WXYX" transform="translate(40.000000, 31.000000)" fill="#000000" font-family="Helvetica-Bold, Helvetica" font-size="10" font-weight="bold">
                        <text>
                            <tspan x="0.026" y="10">WXYX</tspan>
                        </text>
                    </g>
                    <g id="_2" transform="translate(51.000000, 0.000000)" fill="#000000" font-family="Helvetica" font-size="25" font-weight="normal">
                        <text id="9">
                            <tspan x="0.548" y="24">9</tspan>
                        </text>
                    </g>
                </g>
                <g id="_8" transform="translate(129.000000, 110.000000)">
                    <g id="Group" transform="translate(0.000000, 4.000000)" fill="#FFFFFF">
                        <rect id="Key_Background-13" x="0" y="0" width="117" height="46" rx="5"></rect>
                    </g>
                    <g id="TUV" transform="translate(46.000000, 31.000000)" fill="#000000" font-family="Helvetica-Bold, Helvetica" font-size="10" font-weight="bold">
                        <text>
                            <tspan x="0" y="10">TUV</tspan>
                        </text>
                    </g>
                    <g id="_3" transform="translate(51.000000, 0.000000)" fill="#000000" font-family="Helvetica" font-size="25" font-weight="normal">
                        <text id="8">
                            <tspan x="0.548" y="24">8</tspan>
                        </text>
                    </g>
                </g>
                <g id="_7" transform="translate(6.000000, 110.000000)">
                    <g id="Group" transform="translate(0.000000, 4.000000)" fill="#FFFFFF">
                        <rect id="Key_Background-14" x="0" y="0" width="117" height="46" rx="5"></rect>
                    </g>
                    <g id="PGRS" transform="translate(40.000000, 31.000000)" fill="#000000" font-family="Helvetica-Bold, Helvetica" font-size="10" font-weight="bold">
                        <text>
                            <tspan x="0.58" y="10">PGRS</tspan>
                        </text>
                    </g>
                    <g id="_4" transform="translate(51.000000, 0.000000)" fill="#000000" font-family="Helvetica" font-size="25" font-weight="normal">
                        <text id="7">
                            <tspan x="0.548" y="24">7</tspan>
                        </text>
                    </g>
                </g>
                <g id="_6" transform="translate(252.000000, 56.000000)">
                    <g id="Group" transform="translate(0.000000, 4.000000)" fill="#FFFFFF">
                        <rect id="Key_Background-15" x="0" y="0" width="117" height="46" rx="5"></rect>
                    </g>
                    <g id="MNO" transform="translate(44.000000, 31.000000)" fill="#000000" font-family="Helvetica-Bold, Helvetica" font-size="10" font-weight="bold">
                        <text>
                            <tspan x="0.335" y="10">MNO</tspan>
                        </text>
                    </g>
                    <g id="_5" transform="translate(51.000000, 0.000000)" fill="#000000" font-family="Helvetica" font-size="25" font-weight="normal">
                        <text id="6">
                            <tspan x="0.548" y="24">6</tspan>
                        </text>
                    </g>
                </g>
                <g id="_5-2" transform="translate(129.000000, 56.000000)">
                    <g id="Group" transform="translate(0.000000, 4.000000)" fill="#FFFFFF">
                        <rect id="Key_Background-16" x="0" y="0" width="117" height="46" rx="5"></rect>
                    </g>
                    <g id="JKL" transform="translate(46.000000, 31.000000)" fill="#000000" font-family="Helvetica-Bold, Helvetica" font-size="10" font-weight="bold">
                        <text>
                            <tspan x="0.554" y="10">JKL</tspan>
                        </text>
                    </g>
                    <g id="_6-2" transform="translate(51.000000, 0.000000)" fill="#000000" font-family="Helvetica" font-size="25" font-weight="normal">
                        <text id="5">
                            <tspan x="0.548" y="24">5</tspan>
                        </text>
                    </g>
                </g>
                <g id="_4-2" transform="translate(6.000000, 56.000000)">
                    <g id="Group" transform="translate(0.000000, 4.000000)" fill="#FFFFFF">
                        <rect id="Key_Background-17" x="0" y="0" width="117" height="46" rx="5"></rect>
                    </g>
                    <g id="GHI" transform="translate(47.000000, 31.000000)" fill="#000000" font-family="Helvetica-Bold, Helvetica" font-size="10" font-weight="bold">
                        <text>
                            <tspan x="0.111" y="10">GHI</tspan>
                        </text>
                    </g>
                    <g id="_7-2" transform="translate(51.000000, 0.000000)" fill="#000000" font-family="Helvetica" font-size="25" font-weight="normal">
                        <text id="4">
                            <tspan x="0.548" y="24">4</tspan>
                        </text>
                    </g>
                </g>
                <g id="_3-2" transform="translate(252.000000, 2.000000)">
                    <g id="Group" transform="translate(0.000000, 4.000000)" fill="#FFFFFF">
                        <rect id="Key_Background-18" x="0" y="0" width="117" height="46" rx="5"></rect>
                    </g>
                    <g id="DEF" transform="translate(46.000000, 31.000000)" fill="#000000" font-family="Helvetica-Bold, Helvetica" font-size="10" font-weight="bold">
                        <text>
                            <tspan x="0" y="10">DEF</tspan>
                        </text>
                    </g>
                    <g id="_8-2" transform="translate(51.000000, 0.000000)" fill="#000000" font-family="Helvetica" font-size="25" font-weight="normal">
                        <text id="3">
                            <tspan x="0.548" y="24">3</tspan>
                        </text>
                    </g>
                </g>
                <g id="_2-2" transform="translate(129.000000, 2.000000)">
                    <g id="Group" transform="translate(0.000000, 4.000000)" fill="#FFFFFF">
                        <rect id="Key_Background-19" x="0" y="0" width="117" height="46" rx="5"></rect>
                    </g>
                    <g id="ABC" transform="translate(45.000000, 31.000000)" fill="#000000" font-family="Helvetica-Bold, Helvetica" font-size="10" font-weight="bold">
                        <text>
                            <tspan x="0.167" y="10">ABC</tspan>
                        </text>
                    </g>
                    <g id="_9-2" transform="translate(51.000000, 0.000000)" fill="#000000" font-family="Helvetica" font-size="25" font-weight="normal">
                        <text id="2">
                            <tspan x="0.548" y="24">2</tspan>
                        </text>
                    </g>
                </g>
                <g id="_1" transform="translate(6.000000, 2.000000)">
                    <g id="Group" transform="translate(0.000000, 4.000000)" fill="#FFFFFF">
                        <rect id="Key_Background-20" x="0" y="0" width="117" height="46" rx="5"></rect>
                    </g>
                    <g id="_11" transform="translate(51.000000, 0.000000)" fill="#000000" font-family="Helvetica" font-size="25" font-weight="normal">
                        <text id="1">
                            <tspan x="0.548" y="24">1</tspan>
                        </text>
                    </g>
                </g>
            </g>
        </g>
    </g>
</svg>