<?xml version="1.0" encoding="utf-8"?>
<svg version="1.1" xmlns:xlink="http://www.w3.org/1999/xlink" width="22px" height="12px" xmlns="http://www.w3.org/2000/svg">
  <g transform="matrix(1 0 0 1 -608 -239 )">
    <path d="M 21.1230037263998 1.8945720328777  C 21.4581611580404 1.55673520426421  21.4556203352865 1.01276850016279  21.1187074422201 0.678442648111968  C 20.7809630232747 0.344994513346364  20.2378278450521 0.34670381022147  19.9035481844076 0.683616676432393  L 11.0992796150716 9.56868336100274  L 2.17208148030599 0.721451815592445  C 1.83433706136069 0.387172154947848  1.29120188313803 0.38971297770172  0.956044478352851 0.726625843912871  C 0.621764817708339 1.06437026285812  0.624305640462239 1.60833696695977  0.961218506673191 1.94266284586593  L 10.4495685359701 11.3450869230142  C 10.4641667122396 11.3596850992838  10.4830611726888 11.3631498575846  10.4977055403646 11.3768702897135  C 10.5011241072591 11.3802888566081  10.5020018245443 11.3845851407875  10.5054203914388 11.3880498990884  C 10.6729759847005 11.5538962223306  10.892133367513 11.6372813517253  11.1104130061849 11.6372813517253  C 11.3312796590169 11.6372813517253  11.5529778377279 11.5521869523111  11.7205796492513 11.3829220621744  L 21.1230037263998 1.8945720328777  Z " fill-rule="nonzero" fill="#333333" stroke="none" transform="matrix(1 0 0 1 608 239 )" />
  </g>
</svg>