<?xml version="1.0" encoding="utf-8"?>
<svg version="1.1" xmlns:xlink="http://www.w3.org/1999/xlink" width="16px" height="9px" xmlns="http://www.w3.org/2000/svg">
  <g transform="matrix(1 0 0 1 -1951 -313 )">
    <path d="M 15.2717083378146 1.37205488219274  C 15.5154591971896 1.11465539372512  15.5136113260958 0.700204571552604  15.268583767502 0.445480112847235  C 15.0229514628145 0.191424391121245  14.6279440604707 0.192726712549984  14.384831580002 0.449422229662787  L 7.9817271659395 7.21899684647815  L 1.48921943156449 0.478249002356051  C 1.24358712687706 0.223559737103187  0.848579724533238 0.225495602058572  0.604828884689596 0.482191119171603  C 0.361716404220772 0.739520200272864  0.363564275314502 1.1539710224456  0.608591814377121 1.4086955016121  L 7.50921001750203 8.57244717943945  C 7.51982687297084 8.58356959945422  7.53356829875207 8.58620941530262  7.54421874797077 8.59666307787666  C 7.54670497843949 8.59926770027278  7.54734331828331 8.60254105964736  7.54982954875203 8.60518087549576  C 7.67168816203326 8.73153997891859  7.83107534953331 8.79507150607628  7.98982417765825 8.79507150607628  C 8.15045447062698 8.79507150607628  8.31168950968953 8.73023767795144  8.43358173625205 8.60127395213271  L 15.2717083378146 1.37205488219274  Z " fill-rule="nonzero" fill="#cccccc" stroke="none" transform="matrix(1 0 0 1 1951 313 )" />
  </g>
</svg>