<?xml version="1.0" encoding="utf-8"?>
<svg version="1.1" xmlns:xlink="http://www.w3.org/1999/xlink" width="10px" height="607px" preserveAspectRatio="xMidYMin meet" viewBox="2049.84615384615 277  8 607" xmlns="http://www.w3.org/2000/svg">
  <path d="M 1967 879.5  L 2048.84615384615 879.5  A 5 5 0 0 0 2054.34615384615 874.5 L 2054.34615384615 287  A 5 5 0 0 1 2059.34615384615 282.5 L 2110 282.5  " stroke-width="1" stroke="#ff4e57" fill="none" />
  <path d="M 1969 876.5  A 3 3 0 0 0 1966 879.5 A 3 3 0 0 0 1969 882.5 A 3 3 0 0 0 1972 879.5 A 3 3 0 0 0 1969 876.5 Z M 2109 288.8  L 2115 282.5  L 2109 276.2  L 2109 288.8  Z " fill-rule="nonzero" fill="#ff4e57" stroke="none" />
</svg>