<?xml version="1.0" encoding="utf-8"?>
<svg version="1.1" xmlns:xlink="http://www.w3.org/1999/xlink" width="24px" height="13px" xmlns="http://www.w3.org/2000/svg">
  <g transform="matrix(1 0 0 1 -513 -304 )">
    <path d="M 23.25 8.5  C 23.25 8.19999999999999  23.3999999999999 7.75  23.1000000000001 7.44999999999999  L 20.7 4.60000000000002  C 21.6000000000001 3.69999999999999  22.3500000000001 2.64999999999998  22.95 1.44999999999999  C 23.1000000000001 1.14999999999998  22.95 0.699999999999989  22.6499999999999 0.399999999999977  C 22.3500000000001 0.25  21.8999999999999 0.399999999999977  21.6000000000001 0.699999999999989  C 19.8 4.44999999999999  16.05 6.69999999999999  12 6.69999999999999  C 7.95000000000005 6.69999999999999  4.20000000000005 4.44999999999999  2.39999999999986 0.850000000000023  C 2.25 0.399999999999977  1.79999999999995 0.25  1.35000000000014 0.550000000000011  C 1.04999999999995 0.699999999999989  0.899999999999864 1.14999999999998  1.04999999999995 1.44999999999999  C 1.64999999999986 2.64999999999998  2.39999999999986 3.54999999999995  3.29999999999995 4.44999999999999  L 0.899999999999864 7.29999999999995  C 0.600000000000136 7.59999999999997  0.75 8.04999999999995  1.04999999999995 8.34999999999997  C 1.20000000000005 8.5  1.35000000000014 8.5  1.5 8.5  C 1.64999999999986 8.5  1.95000000000005 8.34999999999997  2.10000000000014 8.19999999999999  L 4.35000000000014 5.5  C 5.10000000000014 6.10000000000002  5.85000000000014 6.54999999999996  6.75 7  L 5.54999999999995 10.45  C 5.39999999999986 10.9  5.54999999999995 11.2  6 11.35  C 6.14999999999986 11.35  6.14999999999986 11.35  6.29999999999995 11.35  C 6.60000000000014 11.35  6.89999999999986 11.2  7.04999999999995 10.9  L 8.25 7.44999999999999  C 9.14999999999986 7.90000000000003  10.2 8.04999999999995  11.25 8.19999999999999  L 11.25 11.65  C 11.25 12.1  11.55 12.4  12 12.4  C 12.45 12.4  12.75 12.1  12.75 11.65  L 12.75 8.19999999999999  C 13.8 8.19999999999999  14.8500000000001 7.90000000000003  15.8999999999999 7.59999999999997  L 17.1000000000001 10.9  C 17.25 11.2  17.55 11.35  17.8500000000001 11.35  C 18 11.35  18 11.35  18.1499999999999 11.35  C 18.6000000000001 11.2  18.75 10.75  18.6000000000001 10.45  L 17.3999999999999 7  C 18.3 6.54999999999996  19.05 6.10000000000002  19.8 5.5  L 22.2 8.34999999999997  C 22.3500000000001 8.5  22.5 8.65000000000003  22.8 8.65000000000003  C 22.95 8.65000000000003  23.1000000000001 8.65000000000003  23.25 8.5  Z " fill-rule="nonzero" fill="#cccccc" stroke="none" transform="matrix(1 0 0 1 513 304 )" />
  </g>
</svg>