<?xml version="1.0" encoding="utf-8"?>
<svg version="1.1" xmlns:xlink="http://www.w3.org/1999/xlink" width="18px" height="18px" xmlns="http://www.w3.org/2000/svg">
  <g transform="matrix(1 0 0 1 -428 -230 )">
    <path d="M 15.62497836 17.32203456  L 8.83675323600005 10.533809508  L 2.04852813599996 17.32203456  C 1.57989898800002 17.79066372  0.820101013200031 17.79066372  0.351471862799997 17.32203456  C -0.117157287479984 16.85340552  -0.117157287479984 16.09360752  0.351471862799997 15.62497836  L 7.139696964 8.83675323599999  L 0.351471862799997 2.04852813599999  C -0.117157287479984 1.57989898800002  -0.117157287479984 0.820101013200002  0.351471862799997 0.351471862799997  C 0.820101013200031 -0.117157287480012  1.57989898800002 -0.117157287480012  2.04852813599996 0.351471862799997  L 8.83675323600005 7.139696964  L 15.62497836 0.351471862799997  C 16.09360752 -0.117157287480012  16.85340552 -0.117157287480012  17.32203456 0.351471862799997  C 17.79066372 0.820101013200002  17.79066372 1.57989898800002  17.32203456 2.04852813599999  L 10.533809508 8.83675323599999  L 17.32203456 15.62497836  C 17.79066372 16.09360752  17.79066372 16.85340552  17.32203456 17.32203456  C 16.85340552 17.79066372  16.09360752 17.79066372  15.62497836 17.32203456  Z " fill-rule="nonzero" fill="#cccccc" stroke="none" transform="matrix(1 0 0 1 428 230 )" />
  </g>
</svg>