<?xml version="1.0" encoding="utf-8"?>
<svg version="1.1" xmlns:xlink="http://www.w3.org/1999/xlink" width="18px" height="18px" xmlns="http://www.w3.org/2000/svg">
  <g transform="matrix(1 0 0 1 -816 -412 )">
    <path d="M 17.4375 9  C 17.4375 4.34733114676339  13.6526688532366 0.5625  9 0.5625  C 4.34791431361612 0.5625  0.5625 4.34733114676339  0.5625 9  C 0.5625 13.6526688532366  4.34733114676339 17.4375  9 17.4375  C 13.6520856863839 17.4375  17.4375 13.6526688532366  17.4375 9  Z M 9.85400387904576 9.00239743652344  L 12.4419012953404 11.598750640346  C 12.6769467480468 11.8349948018973  12.676331187221 12.2158947970145  12.4407025864955 12.4509402497209  C 12.3231960665457 12.5678636216518  12.1695012785993 12.6269246526227  12.0152233426339 12.6269246526227  C 11.8603298458427 12.6269246526227  11.7060519098771 12.5678636028181  11.5885129771206 12.4497415220424  L 8.99698702148441 9.85037532087051  L 6.39703765345985 12.4226246400669  C 6.27953113350998 12.5383492843192  6.12641951241631 12.596794773298  5.97334028529576 12.596794773298  C 5.81786362165178 12.596794773298  5.66297014369422 12.5371181815011  5.5448480440848 12.4177973730469  C 5.31100130022321 12.1809376506696  5.31281556989393 11.8000376555525  5.54967531110492 11.5656077636719  L 8.1466116817802 8.99698700265071  L 5.55929743233821 6.40124934082036  C 5.32425197963175 6.16558832728794  5.3248675404576 5.78410518415177  5.56049614118308 5.54905973144531  C 5.79615715471539 5.31339871791295  6.17702473702559 5.31462983956476  6.41268575055801 5.55025844029018  L 9.00359614536831 8.14900908063612  L 11.6035455133929 5.57679215541293  C 11.8397896749442 5.34236226353238  12.2218883789062 5.34475968122211  12.4557351227678 5.58161942243299  C 12.6901650146484 5.81847914481028  12.6877675969587 6.19996228794645  12.4509078557478 6.43380903180804  L 9.85400387904576 9.00239743652344  Z " fill-rule="nonzero" fill="#cccccc" stroke="none" transform="matrix(1 0 0 1 816 412 )" />
  </g>
</svg>