<?xml version="1.0" encoding="utf-8"?>
<svg version="1.1" xmlns:xlink="http://www.w3.org/1999/xlink" width="40px" height="48px" xmlns="http://www.w3.org/2000/svg">
  <defs>
    <filter x="137px" y="390px" width="40px" height="48px" filterUnits="userSpaceOnUse" id="filter65">
      <feOffset dx="1" dy="1" in="SourceAlpha" result="shadowOffsetInner" />
      <feGaussianBlur stdDeviation="4" in="shadowOffsetInner" result="shadowGaussian" />
      <feComposite in2="shadowGaussian" operator="atop" in="SourceAlpha" result="shadowComposite" />
      <feColorMatrix type="matrix" values="0 0 0 0 0.6  0 0 0 0 0.6  0 0 0 0 0.6  0 0 0 0.698039215686274 0  " in="shadowComposite" />
    </filter>
    <g id="widget66">
      <path d="M 156 428.036928468354  C 151.4 420.40734059591  144.5 415.829587872444  144.5 408.2  C 144.5 404.225714285714  146.8 397.5  156 397.5  C 165.2 397.5  167.5 404.225714285714  167.5 408.2  C 167.5 415.829587872444  160.6 420.40734059591  156 428.036928468354  Z " fill-rule="nonzero" fill="#199ed8" stroke="none" />
      <path d="M 156 429  C 151.2 421  144 416.2  144 408.2  C 144 404.04  146.4 397  156 397  C 165.6 397  168 404.04  168 408.2  C 168 416.2  160.8 421  156 429  Z M 156 427.073856936707  C 160.4 419.81468119182  167 415.459175744887  167 408.2  C 167 404.411428571429  164.8 398  156 398  C 147.2 398  145 404.411428571429  145 408.2  C 145 415.459175744887  151.6 419.81468119182  156 427.073856936707  Z " fill-rule="nonzero" fill="#ffffff" stroke="none" />
    </g>
  </defs>
  <g transform="matrix(1 0 0 1 -137 -390 )">
    <use xlink:href="#widget66" filter="url(#filter65)" />
    <use xlink:href="#widget66" />
  </g>
</svg>