<?xml version="1.0" encoding="utf-8"?>
<svg version="1.1" xmlns:xlink="http://www.w3.org/1999/xlink" width="41px" height="41px" xmlns="http://www.w3.org/2000/svg">
  <defs>
    <filter x="527px" y="185px" width="41px" height="41px" filterUnits="userSpaceOnUse" id="filter67">
      <feOffset dx="1" dy="1" in="SourceAlpha" result="shadowOffsetInner" />
      <feGaussianBlur stdDeviation="4" in="shadowOffsetInner" result="shadowGaussian" />
      <feComposite in2="shadowGaussian" operator="atop" in="SourceAlpha" result="shadowComposite" />
      <feColorMatrix type="matrix" values="0 0 0 0 0.4  0 0 0 0 0.4  0 0 0 0 0.4  0 0 0 0.576470588235294 0  " in="shadowComposite" />
    </filter>
    <g id="widget68">
      <path d="M 546.5 192  C 553.5 192  559 197.5  559 204.5  C 559 211.5  553.5 217  546.5 217  C 539.5 217  534 211.5  534 204.5  C 534 197.5  539.5 192  546.5 192  Z " fill-rule="nonzero" fill="#199ed8" stroke="none" />
      <path d="M 546.5 192.5  C 553.22 192.5  558.5 197.78  558.5 204.5  C 558.5 211.22  553.22 216.5  546.5 216.5  C 539.78 216.5  534.5 211.22  534.5 204.5  C 534.5 197.78  539.78 192.5  546.5 192.5  Z " stroke-width="1" stroke="#ffffff" fill="none" />
    </g>
  </defs>
  <g transform="matrix(1 0 0 1 -527 -185 )">
    <use xlink:href="#widget68" filter="url(#filter67)" />
    <use xlink:href="#widget68" />
  </g>
</svg>